<?xml version="1.0" encoding="UTF-8"?>
<svg id="_圖層_2" data-name="圖層 2" xmlns="http://www.w3.org/2000/svg" viewBox="0 0 1651.59 416.67">
  <defs>
    <style>
      .cls-1 {
        fill: #0d3956;
      }
    </style>
  </defs>
  <g>
    <g>
      <path class="cls-1" d="m371.55,63.3h-8.77v6.48h-32.38v8.77h32.38v4.18h-32.38v54.1h8.77v-45.33h10.66v10.66h-6.48v8.77h19.43v4.18h-19.43v8.77h19.43v12.95h8.77v-12.95h19.43v-8.77h-19.43v-4.18h19.43v-8.77h-12.95v-4.18h6.48v-6.48h10.66v36.56h-6.48v8.77h15.25v-54.1h-32.38v-4.18h32.38v-8.77h-32.38v-6.48Zm4.18,28.2v4.18h-6.48v6.48h-10.66v-10.66h17.13Z"/>
      <path class="cls-1" d="m479.83,117.4h6.48v-15.25h-41.15v8.77h6.48v12.95h6.48v4.18h-19.43v8.77h21.72v-6.48h17.13v6.48h15.25v-8.77h-12.95v-10.66Zm-2.3-2.3h-6.48v6.48h-10.66v-10.66h17.13v4.18Z"/>
      <polygon class="cls-1" points="440.98 102.15 434.5 102.15 434.5 85.02 440.98 85.02 440.98 76.25 434.5 76.25 434.5 63.3 425.73 63.3 425.73 76.25 419.25 76.25 419.25 85.02 425.73 85.02 425.73 108.63 419.25 108.63 419.25 117.4 425.73 117.4 425.73 128.06 419.25 128.06 419.25 136.83 434.5 136.83 434.5 110.92 440.98 110.92 440.98 102.15"/>
      <polygon class="cls-1" points="484.01 89.2 479.83 89.2 479.83 63.3 451.63 63.3 451.63 89.2 445.16 89.2 445.16 97.97 453.93 97.97 453.93 91.5 460.41 91.5 460.41 72.07 471.06 72.07 471.06 97.97 492.79 97.97 492.79 82.72 484.01 82.72 484.01 89.2"/>
      <polygon class="cls-1" points="534.04 62.14 514.82 62.14 514.82 70.07 509.09 70.07 509.09 88.72 516.85 88.72 516.85 72.87 532.01 72.87 532.01 93.83 526.28 93.83 526.28 101.76 520.55 101.76 520.55 109.68 514.82 109.68 514.82 117.6 509.09 117.6 509.09 136.25 539.77 136.25 539.77 125.52 516.85 125.52 516.85 120.41 522.58 120.41 522.58 112.49 528.31 112.49 528.31 104.56 534.04 104.56 534.04 96.64 539.77 96.64 539.77 70.07 534.04 70.07 534.04 62.14"/>
      <path class="cls-1" d="m578.26,62.14h-19.22v7.92h-5.73v58.27h5.73v7.92h19.22v-7.92h5.73v-58.27h-5.73v-7.92Zm-2.03,63.38h-15.15v-52.65h15.15v52.65Z"/>
      <polygon class="cls-1" points="622.48 62.14 603.27 62.14 603.27 70.07 597.54 70.07 597.54 88.72 605.3 88.72 605.3 72.87 620.45 72.87 620.45 93.83 614.72 93.83 614.72 101.76 609 101.76 609 109.68 603.27 109.68 603.27 117.6 597.54 117.6 597.54 136.25 628.21 136.25 628.21 125.52 605.3 125.52 605.3 120.41 611.03 120.41 611.03 112.49 616.75 112.49 616.75 104.56 622.48 104.56 622.48 96.64 628.21 96.64 628.21 70.07 622.48 70.07 622.48 62.14"/>
      <polygon class="cls-1" points="666.71 88.72 666.71 80.8 672.44 80.8 672.44 62.14 641.76 62.14 641.76 72.87 664.68 72.87 664.68 77.99 658.95 77.99 658.95 85.91 653.22 85.91 653.22 93.83 647.49 93.83 647.49 104.56 664.68 104.56 664.68 125.52 649.52 125.52 649.52 117.6 641.76 117.6 641.76 128.33 647.49 128.33 647.49 136.25 666.71 136.25 666.71 128.33 672.44 128.33 672.44 101.76 666.71 101.76 666.71 93.83 660.98 93.83 660.98 88.72 666.71 88.72"/>
    </g>
    <g>
      <path class="cls-1" d="m655.49,197.31h-10.47v-13.71h-16.94v13.71h-54.82v109.64h-24.17v-65.29h13.71v-16.94h-13.71v-41.12h-16.94v41.12h-13.71v16.94h13.71v65.29h-13.71v16.94h41.12v13.71h16.94v-27.41h41.12v-71.77h-27.41v-24.17h37.88v68.53h13.71v24.17h-13.71v13.71h-27.41v16.94h30.65v-13.71h13.71v-13.71h10.47v27.41h16.94v-30.65h-13.71v-24.17h13.71v-44.35h-16.94v41.12h-10.47v-65.29h27.41v-30.65h-16.94v13.71Zm-54.82,58.06v37.88h-10.47v-37.88h10.47Z"/>
      <path class="cls-1" d="m819.35,183.61h-16.94v41.12h-10.47v-27.41h-27.41v-13.71h-16.94v13.71h-27.41v27.41h-13.71v16.94h13.71v51.58h-13.71v16.94h27.41v10.47h-27.41v16.94h30.65v-13.71h37.88v13.71h30.65v-13.71h13.71v-13.71h10.47v13.71h13.71v13.71h16.94v-16.94h-13.71v-13.71h-13.71v-24.17h13.71v-68.53h13.71v-16.94h-41.12v-13.71Zm-3.24,123.35h-13.71v13.71h-24.17v-10.47h13.71v-13.71h13.71v-13.71h10.47v24.17Zm-10.47-78.99h13.71v-13.71h10.47v65.29h-10.47v-27.41h-16.94v27.41h-10.47v-37.88h13.71v-13.71Zm-68.53-3.24v-10.47h10.47v10.47h-10.47Zm0,27.41v-10.47h10.47v10.47h-10.47Zm0,27.41v-10.47h10.47v10.47h-10.47Zm0,16.94h37.88v10.47h-37.88v-10.47Zm27.41-71.77v-10.47h10.47v10.47h-10.47Zm0,27.41v-10.47h10.47v10.47h-10.47Zm0,27.41v-10.47h10.47v10.47h-10.47Z"/>
      <polygon class="cls-1" points="1021.1 296.49 1034.8 296.49 1034.8 238.43 1017.86 238.43 1017.86 293.25 1004.15 293.25 1004.15 320.66 935.63 320.66 935.63 337.6 1048.51 337.6 1048.51 320.66 1021.1 320.66 1021.1 296.49"/>
      <rect class="cls-1" x="963.04" y="238.43" width="16.94" height="71.77"/>
      <polygon class="cls-1" points="1007.39 183.61 990.45 183.61 990.45 211.02 938.86 211.02 938.86 183.61 921.92 183.61 921.92 211.02 908.22 211.02 908.22 238.43 894.51 238.43 894.51 255.37 908.22 255.37 908.22 337.6 925.16 337.6 925.16 214.26 935.63 214.26 935.63 227.96 1048.51 227.96 1048.51 211.02 1007.39 211.02 1007.39 183.61"/>
      <polygon class="cls-1" points="1222.84 306.95 1205.89 306.95 1205.89 323.9 1219.6 323.9 1219.6 337.6 1236.54 337.6 1236.54 320.66 1222.84 320.66 1222.84 306.95"/>
      <polygon class="cls-1" points="1140.61 306.95 1123.66 306.95 1123.66 323.9 1137.37 323.9 1137.37 337.6 1154.31 337.6 1154.31 320.66 1140.61 320.66 1140.61 306.95"/>
      <polygon class="cls-1" points="1181.72 306.95 1164.78 306.95 1164.78 323.9 1178.48 323.9 1178.48 337.6 1195.43 337.6 1195.43 320.66 1181.72 320.66 1181.72 306.95"/>
      <path class="cls-1" d="m1168.02,269.08h54.82v-16.94h-54.82v-10.47h54.82v-58.06h-126.59v58.06h54.82v10.47h-54.82v16.94h54.82v10.47h-68.53v16.94h154v-16.94h-68.53v-10.47Zm27.41-54.82v-13.71h10.47v24.17h-37.88v-24.17h10.47v13.71h16.94Zm-54.82,0v-13.71h10.47v24.17h-37.88v-24.17h10.47v13.71h16.94Z"/>
      <polygon class="cls-1" points="1096.25 320.66 1082.55 320.66 1082.55 337.6 1099.49 337.6 1099.49 323.9 1113.2 323.9 1113.2 306.95 1096.25 306.95 1096.25 320.66"/>
      <path class="cls-1" d="m1356.05,183.61h-16.94v13.71h-68.53v44.35h13.71v13.71h16.94v-13.71h13.71v-13.71h10.47v13.71h13.71v10.47h-27.41v13.71h-41.12v16.94h27.41v54.82h99.18v-54.82h27.41v-16.94h-27.41v-13.71h-27.41v-10.47h13.71v-13.71h13.71v-13.71h10.47v27.41h16.94v-44.35h-68.53v-13.71Zm-41.12,112.88h65.29v24.17h-65.29v-24.17Zm78.99-16.94h-78.99v-10.47h27.41v-13.71h24.17v13.71h27.41v10.47Zm-82.23-54.82h-13.71v13.71h-10.47v-24.17h24.17v10.47Zm68.53,0h-13.71v13.71h-24.17v-13.71h-13.71v-10.47h51.58v10.47Z"/>
      <polygon class="cls-1" points="1513.44 269.08 1530.38 269.08 1530.38 241.67 1544.09 241.67 1544.09 211.02 1527.15 211.02 1527.15 238.43 1513.44 238.43 1513.44 269.08"/>
      <polygon class="cls-1" points="1598.91 224.72 1598.91 183.61 1540.85 183.61 1540.85 200.55 1581.97 200.55 1581.97 227.96 1595.67 227.96 1595.67 269.08 1612.62 269.08 1612.62 224.72 1598.91 224.72"/>
      <polygon class="cls-1" points="1516.68 211.02 1502.97 211.02 1502.97 183.61 1486.03 183.61 1486.03 211.02 1458.62 211.02 1458.62 227.96 1486.03 227.96 1486.03 252.13 1472.32 252.13 1472.32 279.54 1458.62 279.54 1458.62 310.19 1475.56 310.19 1475.56 282.78 1486.03 282.78 1486.03 337.6 1502.97 337.6 1502.97 227.96 1516.68 227.96 1516.68 211.02"/>
      <polygon class="cls-1" points="1598.91 279.54 1581.97 279.54 1581.97 306.95 1568.26 306.95 1568.26 320.66 1530.38 320.66 1530.38 310.19 1544.09 310.19 1544.09 282.78 1557.79 282.78 1557.79 252.13 1540.85 252.13 1540.85 279.54 1527.15 279.54 1527.15 306.95 1513.44 306.95 1513.44 337.6 1571.5 337.6 1571.5 323.9 1585.21 323.9 1585.21 310.19 1595.67 310.19 1595.67 337.6 1612.62 337.6 1612.62 306.95 1598.91 306.95 1598.91 279.54"/>
      <polygon class="cls-1" points="484.4 337.58 484.4 238.43 467.45 238.43 467.45 320.66 415.87 320.66 415.87 217.47 407.07 217.47 407.07 200.52 415.87 200.52 417.33 200.52 423.98 200.52 423.98 196.95 423.98 183.58 417.33 183.58 407.03 183.58 407.03 183.61 407.03 200.52 398.93 200.52 396.81 200.52 390.13 200.52 390.13 217.47 398.93 217.47 398.93 320.66 347.35 320.66 347.35 238.43 330.4 238.43 330.4 337.6 475.87 337.6 475.87 354.52 492.82 354.52 492.82 337.58 484.4 337.58"/>
    </g>
  </g>
  <g>
    <path class="cls-1" d="m230,182.96c.46-.02.91-.05,1.37-.07.06-.03.12-.05.18-.08-.06.03-.12.05-.18.08-.46.02-.91.04-1.37.07Z"/>
    <path class="cls-1" d="m181.5,205.61c0-1.59-1.29-2.88-2.88-2.88s-2.88,1.29-2.88,2.88,1.29,2.88,2.88,2.88,2.88-1.29,2.88-2.88Z"/>
    <path class="cls-1" d="m212.21,248.63c0-1.59-1.29-2.88-2.88-2.88s-2.88,1.29-2.88,2.88,1.29,2.88,2.88,2.88,2.88-1.29,2.88-2.88Z"/>
    <path class="cls-1" d="m252.15,218.52c0-1.59-1.29-2.88-2.88-2.88s-2.88,1.29-2.88,2.88,1.29,2.88,2.88,2.88,2.88-1.29,2.88-2.88Z"/>
    <path class="cls-1" d="m210.5,120.33c1.91.89,3.85,1.74,5.63,2.84,4.28,2.66,7.37,6.73,9.12,11.41,1.24,3.32.56,8.89,3.54,11.32,1.65,1.35,5.42,1.47,8.07,2.27,2.79.01,5.58.06,8.35.19,1.89.09,3.63.14,5.29-.1v-.12s.67-.03.67-.03v.04c.2-.04.4-.08.59-.13,4.26-1.06,7.05-5.21,6.22-9.25-.06-.29-.14-.58-.23-.87-.63-1.88-1.98-3.49-3.7-4.41-.41-.22-1.15-.36-1.86-.49-1.07-.2-2.17-.4-2.9-.99-1.26-1.03-1.49-2.71-1.7-4.19-.09-.68-.18-1.31-.35-1.77-.81-2.16-2.19-3.89-4-5.02-.69-.43-1.44-.77-2.24-1.14l-.98-.45-.03-.65c-.13-3.45-4.06-6.26-8.75-6.26h-.53l-.35-.42c-.13-.17-.26-.34-.39-.51-3.62-4.6-8.89-6.66-14.85-5.79-3.65.53-7.13,2.15-9.98,4.49,3.21,2.65,5.22,6.16,5.36,10.03Z"/>
    <path class="cls-1" d="m233.33,230.63c0-1.59-1.29-2.88-2.88-2.88s-2.88,1.29-2.88,2.88,1.29,2.88,2.88,2.88,2.88-1.29,2.88-2.88Z"/>
    <path class="cls-1" d="m93,227.49c0-1.59-1.29-2.88-2.88-2.88s-2.88,1.29-2.88,2.88,1.29,2.88,2.88,2.88,2.88-1.29,2.88-2.88Z"/>
    <path class="cls-1" d="m144.9,234.46c0-1.59-1.29-2.88-2.88-2.88s-2.88,1.29-2.88,2.88,1.29,2.88,2.88,2.88,2.88-1.29,2.88-2.88Z"/>
    <path class="cls-1" d="m120.98,244.35c0-1.59-1.29-2.88-2.88-2.88s-2.88,1.29-2.88,2.88,1.29,2.88,2.88,2.88,2.88-1.29,2.88-2.88Z"/>
    <path class="cls-1" d="m101.41,141.5c-.69-.31-7.37,2.58-7.94,2.94-2.55,1.6-4.73,3.78-6.37,6.3-3.8,5.83-4.49,13.33-1.73,19.74,2.03,4.69,5.84,8.58,10.48,10.71,9.2,4.22,21.48,2.17,31.34,2.17,1.17,0,2.35,0,3.52,0l-.13-9.88c0-.45.15-.88.45-1.22l11.85-13.45c.34-.39.84-.61,1.36-.61h35.87c1,0,1.81.81,1.81,1.81v23.17c12.36-.18,24.74-.33,36.99.25,4.72.23,9.52.37,14.11-.78,9.41-2.35,16.41-11.77,14.39-21.58-.14-.69-.33-1.37-.55-2.04-1.15-3.41-3.34-6.46-6.18-8.67,1.47.03,2.94.08,4.4.15,2.45.12,4.85.17,7.17-.41,5.35-1.34,8.84-6.61,7.79-11.74h0c-.08-.38-.18-.75-.3-1.12-.8-2.39-2.52-4.44-4.72-5.61-.7-.38-1.61-.54-2.48-.71-.73-.13-1.63-.3-1.94-.55-.61-.5-.78-1.68-.93-2.83-.1-.76-.21-1.55-.47-2.23-.97-2.6-2.66-4.71-4.87-6.09-.74-.46-1.53-.83-2.29-1.19-.57-4.2-4.9-7.44-10.32-7.64-.03-.04-.07-.08-.1-.13-4.05-5.15-10.18-7.54-16.83-6.58-4.27.62-8.27,2.52-11.48,5.29-3.52-2.27-8.05-3.64-13.02-3.64-.02,0-.05,0-.07,0-.27-.36-.55-.72-.82-1.08-19.16-24.34-56.56-12.02-66.93,14.11-.1.25-.2.5-.41.67-.38.31-.94.21-1.43.1-12.85-2.71-21.14,10.67-16.9,21.9-.75.04-1.49.16-2.22.35-.07.02-.11.05-.13.09Zm129.97,41.4c-.46.02-.91.04-1.37.07.46-.02.91-.05,1.37-.07.06-.03.12-.05.18-.08-.06.03-.12.05-.18.08Zm-16.26-77.09c5.95-.87,11.23,1.19,14.85,5.79.13.17.26.34.39.51l.35.42h.53c4.7,0,8.62,2.81,8.75,6.26l.03.65.98.45c.79.37,1.55.71,2.24,1.14,1.81,1.13,3.2,2.86,4,5.02.17.46.26,1.1.35,1.77.2,1.48.43,3.16,1.7,4.19.73.6,1.83.8,2.9.99.71.13,1.45.27,1.86.49,1.72.92,3.07,2.53,3.7,4.41.1.28.17.58.23.87.83,4.03-1.96,8.18-6.22,9.25-.2.05-.39.09-.59.13v-.04s-.67.03-.67.03v.12c-1.66.24-3.4.19-5.29.1-2.76-.13-5.56-.18-8.35-.19-2.65-.8-6.41-.93-8.07-2.27-2.98-2.43-2.3-8.01-3.54-11.32-1.75-4.69-4.85-8.76-9.12-11.41-1.78-1.11-3.72-1.96-5.63-2.84-.15-3.87-2.16-7.38-5.36-10.03,2.86-2.34,6.34-3.96,9.98-4.49Z"/>
    <path class="cls-1" d="m170.1,396.41c-33.32,0-64.74-12.87-88.46-36.25-23.72-23.38-36.79-54.33-36.79-87.17v-52.23c0-3.55,2.74-6.6,6.24-6.94.23-.02.46-.03.68-.03,3.81,0,6.91,3.06,6.91,6.81v52.39c0,29.28,11.6,56.84,32.67,77.6,21.07,20.76,49.04,32.2,78.75,32.2h.33c61.25-.17,111.09-49.92,111.09-110.91v-43.95h-1.32c-1.49,0-2.88-.79-3.62-2.06-.74-1.27-.75-2.85,0-4.12l8.23-14.05c.74-1.27,2.13-2.06,3.62-2.06h0c1.49,0,2.88.79,3.63,2.06l8.23,14.05c.74,1.28.74,2.86,0,4.13-.75,1.27-2.13,2.06-3.62,2.06h-1.32v45.07c0,32.84-13.06,63.8-36.78,87.17-23.72,23.38-55.14,36.25-88.46,36.25Z"/>
    <path class="cls-1" d="m170.1,393.05c-32.41,0-62.97-12.52-86.05-35.27-23.08-22.74-35.79-52.86-35.79-84.8v-52.23c0-1.8,1.33-3.42,3.15-3.59,2.09-.2,3.85,1.42,3.85,3.44v52.39c0,30.18,11.96,58.58,33.67,79.98,21.71,21.4,50.54,33.18,81.16,33.18h.33c63.14-.17,114.5-51.44,114.5-114.28v-47.31h-4.73c-.6,0-.97-.64-.67-1.15l8.23-14.05c.3-.51,1.04-.51,1.34,0l8.23,14.05c.3.51-.07,1.15-.67,1.15h-4.73v48.43c0,31.94-12.71,62.06-35.79,84.8-23.08,22.74-53.64,35.27-86.05,35.27Z"/>
    <path class="cls-1" d="m51.35,208.49c-1.51,0-2.92-.79-3.68-2.06l-8.13-13.7c-.76-1.27-.76-2.85,0-4.13.76-1.27,2.17-2.06,3.68-2.06h1.22v-44.48c0-32.41,13.06-62.96,36.78-86.03,23.72-23.07,55.14-35.78,88.46-35.78s64.74,12.7,88.46,35.78c23.72,23.07,36.79,53.62,36.79,86.03v51.55c0,3.51-2.74,6.51-6.23,6.84-.23.02-.46.03-.68.03-1.85,0-3.58-.7-4.89-1.97-1.31-1.27-2.03-2.96-2.03-4.75v-51.7c0-59.75-49.98-108.36-111.42-108.36h-.31c-61.27.17-111.11,49.27-111.11,109.46v43.37h1.21c1.51,0,2.92.79,3.67,2.06.76,1.27.76,2.85,0,4.13l-8.13,13.7c-.75,1.27-2.16,2.06-3.68,2.06Z"/>
    <path class="cls-1" d="m43.22,189.86h4.63v-47.79c0-31.52,12.71-61.24,35.79-83.69,23.08-22.44,53.64-34.8,86.05-34.8s62.97,12.36,86.05,34.8c23.08,22.44,35.79,52.17,35.79,83.69v51.55c0,1.78-1.33,3.37-3.15,3.54-2.09.2-3.85-1.4-3.85-3.39v-51.7c0-61.58-51.51-111.67-114.83-111.67h-.33c-63.14.17-114.5,50.76-114.5,112.78v46.69h4.62c.64,0,1.04.68.72,1.22l-8.13,13.69c-.32.54-1.13.54-1.45,0l-8.13-13.69c-.32-.54.08-1.22.72-1.22Z"/>
    <path class="cls-1" d="m191.68,190.64c-2.71-2.26-5.82-3.41-9.3-3.41-.7,0-.76.3-.76.57-.02,1.84-.02,3.85,0,6.14,0,.22.06.48.53.56.29.05.54.08.76.1,1.62.11,3.09.77,4.35,1.95,1.43,1.33,2.2,3.04,2.36,5.24.05.65.16.75.89.75h3.12c.78,0,1.56,0,2.34.01h.04c.38,0,.65-.09.86-.3v-2.19c-.04-.09-.06-.18-.08-.27-.59-3.73-2.31-6.81-5.13-9.16Z"/>
    <path class="cls-1" d="m192.76,205.49c-.11-.11-.34-.17-.69-.17-.44,0-.88,0-1.32,0h-1.76q-1.32,0-1.45,1.34v.18c-.28,3.88-3.2,7.15-6.94,8.16-.34.09-.58.38-.58.73v3.93c0,.48.44.83.91.74,1.54-.3,3.02-.84,4.45-1.64,4.83-2.7,7.36-6.95,7.51-12.64,0-.32-.04-.53-.14-.64Z"/>
    <path class="cls-1" d="m178.84,193.23c0-.45,0-.91,0-1.36-.01-.41-.21-.61-.61-.62-.12,0-.25,0-.37,0-.6,0-1.13.03-1.63.1-3.92.53-7.53,2.66-9.89,5.85-2.36,3.19-3.29,7.14-2.63,11.12,1.09,6.6,6.36,11.52,12.82,12.23.31.03.58-.22.58-.52v-4.1c0-.55-.37-.72-.55-.76-4.19-.79-8.2-4.81-7.64-10.17.31-2.97,1.76-5.33,4.32-7,1.31-.86,2.89-1.33,4.95-1.49.5-.04.66-.15.67-.77,0-.42,0-.84,0-1.26,0,0,0-1.02,0-1.25Z"/>
    <path class="cls-1" d="m270.88,310.33h-5.29l-15.62-27.05v-60.52c2.24-.38,3.91-2.49,3.54-4.91-.29-1.87-1.84-3.37-3.73-3.59-2.6-.31-4.82,1.73-4.82,4.27,0,2.13,1.56,3.89,3.59,4.23v60.52l-11.48,19.88-5.92-10.26v-58.03c2.24-.38,3.91-2.49,3.54-4.91-.29-1.87-1.84-3.37-3.72-3.59-2.6-.31-4.82,1.73-4.82,4.27,0,2.13,1.56,3.89,3.59,4.23v58.04l-4.98,8.63-14.71-25.49v-23.18c2.24-.38,3.9-2.49,3.54-4.91-.29-1.87-1.84-3.37-3.72-3.59-2.6-.31-4.82,1.73-4.82,4.27,0,2.13,1.56,3.89,3.59,4.23v23.18l-8.12,14.07-21.17-36.66v-43.6c2.24-.38,3.91-2.49,3.54-4.91-.29-1.87-1.84-3.37-3.72-3.6-2.6-.31-4.82,1.72-4.82,4.27,0,2.13,1.56,3.89,3.59,4.23v43.6l-28.35,49.11-6.82-11.81v-52.05c2.24-.38,3.9-2.49,3.54-4.9-.28-1.87-1.84-3.37-3.72-3.6-2.6-.31-4.82,1.72-4.82,4.27,0,2.13,1.56,3.89,3.59,4.23v52.05l-6.18,10.7-16.32-28.28v-24.59c2.24-.38,3.9-2.49,3.54-4.9-.28-1.87-1.84-3.37-3.72-3.6-2.6-.31-4.82,1.72-4.82,4.27,0,2.13,1.56,3.89,3.59,4.23v24.59l-17.23,29.84-9.33-16.16v-55.13c2.24-.38,3.91-2.49,3.54-4.91-.29-1.87-1.84-3.37-3.72-3.59-2.6-.31-4.82,1.73-4.82,4.27,0,2.13,1.56,3.89,3.59,4.23v55.13l-13.55,23.47h-6.54c-.59,0-1.07.48-1.07,1.07s.48,1.07,1.07,1.07h201.57c.59,0,1.07-.48,1.07-1.07s-.48-1.07-1.07-1.07Zm-183.64-82.83c0-1.59,1.29-2.88,2.88-2.88s2.88,1.29,2.88,2.88-1.29,2.88-2.88,2.88-2.88-1.29-2.88-2.88Zm27.98,16.86c0-1.59,1.29-2.88,2.88-2.88s2.88,1.29,2.88,2.88-1.29,2.88-2.88,2.88-2.88-1.29-2.88-2.88Zm23.92-9.89c0-1.59,1.29-2.88,2.88-2.88s2.88,1.29,2.88,2.88-1.29,2.88-2.88,2.88-2.88-1.29-2.88-2.88Zm36.6-28.84c0-1.59,1.29-2.88,2.88-2.88s2.88,1.29,2.88,2.88-1.29,2.88-2.88,2.88-2.88-1.29-2.88-2.88Zm30.71,43.02c0-1.59,1.29-2.88,2.88-2.88s2.88,1.29,2.88,2.88-1.29,2.88-2.88,2.88-2.88-1.29-2.88-2.88Zm21.12-18c0-1.59,1.29-2.88,2.88-2.88s2.88,1.29,2.88,2.88-1.29,2.88-2.88,2.88-2.88-1.29-2.88-2.88Zm18.82-12.1c0-1.59,1.29-2.88,2.88-2.88s2.88,1.29,2.88,2.88-1.29,2.88-2.88,2.88-2.88-1.29-2.88-2.88Z"/>
    <path class="cls-1" d="m177.58,187.53c0,.15,0,.3.01.43.05.33.21.48.54.51.04,0,.07,0,.1,0,.18,0,.59,0,.59-.92,0-1.45,0-2.89,0-4.34,0-7.05,0-14.1,0-21.15,0-.85-.11-.96-.95-.96h-10.82c-7.21,0-14.43,0-21.65-.01-.46,0-.79.14-1.13.48-3.68,3.7-7.07,7.1-10.39,10.39-.38.37-.52.72-.52,1.24,0,3.38,0,6.77,0,10.15,0,2.77,0,5.53,0,8.3v27.89c0,1.01.06,1.07,1.09,1.07h32.52c.09,0,.18,0,.27,0,.33-.04.52-.26.52-.61,0-.35-.19-.58-.51-.62-.11-.01-.22-.02-.33-.02h-.38s-11.48,0-11.48,0c-6.43,0-12.86,0-19.29.01-.29,0-.62-.03-.86-.24-.28-.25-.32-.61-.32-.91.01-11.1.02-22.59,0-34.87,0-2.9,0-5.83,0-8.83,0-.29.03-.63.27-.87.24-.24.57-.27.86-.27h0c1.49.01,2.98.02,4.47.02h4.57c.76,0,.89-.13.89-.9v-8.85c0-1.11.2-1.3,1.32-1.3h29.26c1.13,0,1.32.18,1.32,1.3v19.57s0,4.1,0,4.1v.2Z"/>
    <path class="cls-1" d="m170.8,171.03c0-.73-.14-.87-.85-.87-.87,0-1.74,0-2.61,0h-2.85c-.88,0-.97.1-.97,1,0,4.07,0,8.14,0,12.21,0,4.41,0,8.83,0,13.24,1.74-2.73,4.11-4.85,7.03-6.29.2-.1.25-.16.25-.52,0-2.16,0-4.31,0-6.47,0-2.1,0-4.19,0-6.29v-6.01Z"/>
    <path class="cls-1" d="m140.49,214.36s-.08,0-.12,0c-.21-.01-.42-.02-.63-.02-.25,0-.51,0-.76.02-.37.02-.58.26-.57.65,0,.22.02.59.89.59h21.9s.7,0,.7,0c.85,0,.86-.39.86-.61,0-.2-.04-.34-.13-.43-.13-.13-.37-.2-.7-.2-.1,0-.2,0-.29,0-.11,0-.21,0-.32,0-.11,0-.23,0-.34.02-.09.01-.17.02-.24.02-.3,0-.54-.09-.71-.26-.26-.26-.29-.65-.29-.96.02-3.73.02-7.46.01-11.19v-17.63c0-.55-.02-.83-.17-.97-.15-.14-.42-.16-.93-.16h-4.96c-.61,0-.91,0-1.07.16-.15.15-.16.45-.16,1.04v28.44s0,.19,0,.19c0,.12,0,.23,0,.35.02.31-.05.55-.21.72-.16.17-.38.25-.73.25,0,0-.18,0-.18,0-.25,0-.49-.02-.74-.02-.22,0-.44,0-.66.03-.08,0-.16.01-.22.01-.33,0-.57-.09-.75-.27-.26-.26-.29-.64-.29-.98.02-4.24.02-8.47.01-12.7v-3.18c0-.86-.11-.97-.94-.97h-5.4c-.83,0-.94.11-.94.97v11.46c0,1.54,0,3.07,0,4.61,0,.23-.02.57-.26.81-.16.17-.39.25-.68.25Z"/>
  </g>
</svg>