<?xml version="1.0" encoding="UTF-8"?>
<svg version="1.1" xmlns="http://www.w3.org/2000/svg" width="3786" height="1021">
<path d="M0 0 C12.54 0 25.08 0 38 0 C38 9.9 38 19.8 38 30 C57.47 30 76.94 30 97 30 C97 49.47 97 68.94 97 89 C104.26 89 111.52 89 119 89 C119 59.63 119 30.26 119 0 C131.54 0 144.08 0 157 0 C157 9.9 157 19.8 157 30 C186.37 30 215.74 30 246 30 C246 42.54 246 55.08 246 68 C236.1 68 226.2 68 216 68 C216 116.84 216 165.68 216 216 C206.1 216 196.2 216 186 216 C186 233.16 186 250.32 186 268 C195.9 268 205.8 268 216 268 C216 277.57 216 287.14 216 297 C225.9 297 235.8 297 246 297 C246 309.54 246 322.08 246 335 C233.46 335 220.92 335 208 335 C208 325.1 208 315.2 208 305 C198.1 305 188.2 305 178 305 C178 295.43 178 285.86 178 276 C171.07 276 164.14 276 157 276 C157 285.57 157 295.14 157 305 C147.1 305 137.2 305 127 305 C127 314.9 127 324.8 127 335 C104.56 335 82.12 335 59 335 C59 325.1 59 315.2 59 305 C32.27 305 5.54 305 -22 305 C-22 314.9 -22 324.8 -22 335 C-44.11 335 -66.22 335 -89 335 C-89 322.46 -89 309.92 -89 297 C-69.53 297 -50.06 297 -30 297 C-30 290.07 -30 283.14 -30 276 C-49.47 276 -68.94 276 -89 276 C-89 263.46 -89 250.92 -89 238 C-79.1 238 -69.2 238 -59 238 C-59 201.37 -59 164.74 -59 127 C-68.9 127 -78.8 127 -89 127 C-89 114.46 -89 101.92 -89 89 C-79.1 89 -69.2 89 -59 89 C-59 69.53 -59 50.06 -59 30 C-39.53 30 -20.06 30 0 30 C0 20.1 0 10.2 0 0 Z M-22 68 C-22 74.93 -22 81.86 -22 89 C-14.74 89 -7.48 89 0 89 C0 82.07 0 75.14 0 68 C-7.26 68 -14.52 68 -22 68 Z M38 68 C38 74.93 38 81.86 38 89 C44.93 89 51.86 89 59 89 C59 82.07 59 75.14 59 68 C52.07 68 45.14 68 38 68 Z M157 68 C157 77.57 157 87.14 157 97 C147.1 97 137.2 97 127 97 C127 106.9 127 116.8 127 127 C117.1 127 107.2 127 97 127 C97 153.73 97 180.46 97 208 C104.26 208 111.52 208 119 208 C119 188.53 119 169.06 119 149 C131.54 149 144.08 149 157 149 C157 168.47 157 187.94 157 208 C163.93 208 170.86 208 178 208 C178 161.8 178 115.6 178 68 C171.07 68 164.14 68 157 68 Z M-22 127 C-22 134.26 -22 141.52 -22 149 C-14.74 149 -7.48 149 0 149 C0 141.74 0 134.48 0 127 C-7.26 127 -14.52 127 -22 127 Z M38 127 C38 134.26 38 141.52 38 149 C44.93 149 51.86 149 59 149 C59 141.74 59 134.48 59 127 C52.07 127 45.14 127 38 127 Z M-22 186 C-22 193.26 -22 200.52 -22 208 C-14.74 208 -7.48 208 0 208 C0 200.74 0 193.48 0 186 C-7.26 186 -14.52 186 -22 186 Z M38 186 C38 193.26 38 200.52 38 208 C44.93 208 51.86 208 59 208 C59 200.74 59 193.48 59 186 C52.07 186 45.14 186 38 186 Z M127 216 C127 225.9 127 235.8 127 246 C117.1 246 107.2 246 97 246 C97 255.9 97 265.8 97 276 C87.43 276 77.86 276 68 276 C68 282.93 68 289.86 68 297 C84.83 297 101.66 297 119 297 C119 287.43 119 277.86 119 268 C128.9 268 138.8 268 149 268 C149 250.84 149 233.68 149 216 C141.74 216 134.48 216 127 216 Z M-22 246 C-22 253.26 -22 260.52 -22 268 C4.73 268 31.46 268 59 268 C59 260.74 59 253.48 59 246 C32.27 246 5.54 246 -22 246 Z " fill="#0D3956" transform="translate(1723,456)"/>
<path d="M0 0 C12.54 0 25.08 0 38 0 C38 29.37 38 58.74 38 89 C47.57 89 57.14 89 67 89 C67 101.54 67 114.08 67 127 C57.43 127 47.86 127 38 127 C38 173.53 38 220.06 38 268 C54.83 268 71.66 268 89 268 C89 189.46 89 110.92 89 30 C128.27 30 167.54 30 208 30 C208 20.1 208 10.2 208 0 C220.54 0 233.08 0 246 0 C246 9.9 246 19.8 246 30 C252.93 30 259.86 30 267 30 C267 20.1 267 10.2 267 0 C279.54 0 292.08 0 305 0 C305 22.44 305 44.88 305 68 C285.53 68 266.06 68 246 68 C246 114.2 246 160.4 246 208 C252.93 208 259.86 208 267 208 C267 178.63 267 149.26 267 119 C279.54 119 292.08 119 305 119 C305 151.01 305 183.02 305 216 C295.1 216 285.2 216 275 216 C275 233.16 275 250.32 275 268 C284.9 268 294.8 268 305 268 C305 290.11 305 312.22 305 335 C292.46 335 279.92 335 267 335 C267 315.53 267 296.06 267 276 C260.07 276 253.14 276 246 276 C246 285.57 246 295.14 246 305 C236.1 305 226.2 305 216 305 C216 314.9 216 324.8 216 335 C193.56 335 171.12 335 148 335 C148 322.46 148 309.92 148 297 C167.8 297 187.6 297 208 297 C208 287.43 208 277.86 208 268 C217.9 268 227.8 268 238 268 C238 250.84 238 233.68 238 216 C228.1 216 218.2 216 208 216 C208 167.16 208 118.32 208 68 C181.27 68 154.54 68 127 68 C127 84.83 127 101.66 127 119 C146.47 119 165.94 119 186 119 C186 170.81 186 222.62 186 276 C156.63 276 127.26 276 97 276 C97 295.47 97 314.94 97 335 C84.46 335 71.92 335 59 335 C59 325.1 59 315.2 59 305 C29.63 305 0.26 305 -30 305 C-30 292.79 -30 280.58 -30 268 C-20.1 268 -10.2 268 0 268 C0 221.47 0 174.94 0 127 C-9.9 127 -19.8 127 -30 127 C-30 114.46 -30 101.92 -30 89 C-20.1 89 -10.2 89 0 89 C0 59.63 0 30.26 0 0 Z M127 157 C127 183.73 127 210.46 127 238 C133.93 238 140.86 238 148 238 C148 211.27 148 184.54 148 157 C141.07 157 134.14 157 127 157 Z " fill="#0D3956" transform="translate(1256,456)"/>
<path d="M0 0 C12.54 0 25.08 0 38 0 C38 9.9 38 19.8 38 30 C86.84 30 135.68 30 186 30 C186 62.01 186 94.02 186 127 C173.79 127 161.58 127 149 127 C149 107.53 149 88.06 149 68 C141.74 68 134.48 68 127 68 C127 77.57 127 87.14 127 97 C117.1 97 107.2 97 97 97 C97 106.9 97 116.8 97 127 C87.1 127 77.2 127 67 127 C67 134.26 67 141.52 67 149 C86.8 149 106.6 149 127 149 C127 158.57 127 168.14 127 178 C146.47 178 165.94 178 186 178 C186 190.54 186 203.08 186 216 C166.53 216 147.06 216 127 216 C127 255.27 127 294.54 127 335 C55.72 335 -15.56 335 -89 335 C-89 295.73 -89 256.46 -89 216 C-108.8 216 -128.6 216 -149 216 C-149 203.46 -149 190.92 -149 178 C-119.63 178 -90.26 178 -60 178 C-60 168.43 -60 158.86 -60 149 C-40.2 149 -20.4 149 0 149 C0 141.74 0 134.48 0 127 C-9.9 127 -19.8 127 -30 127 C-30 117.1 -30 107.2 -30 97 C-36.93 97 -43.86 97 -51 97 C-51 106.9 -51 116.8 -51 127 C-60.9 127 -70.8 127 -81 127 C-81 136.9 -81 146.8 -81 157 C-93.54 157 -106.08 157 -119 157 C-119 147.1 -119 137.2 -119 127 C-128.9 127 -138.8 127 -149 127 C-149 94.99 -149 62.98 -149 30 C-99.83 30 -50.66 30 0 30 C0 20.1 0 10.2 0 0 Z M-111 68 C-111 84.83 -111 101.66 -111 119 C-103.74 119 -96.48 119 -89 119 C-89 109.1 -89 99.2 -89 89 C-79.43 89 -69.86 89 -60 89 C-60 82.07 -60 75.14 -60 68 C-76.83 68 -93.66 68 -111 68 Z M-22 68 C-22 74.93 -22 81.86 -22 89 C-12.1 89 -2.2 89 8 89 C8 98.9 8 108.8 8 119 C24.83 119 41.66 119 59 119 C59 109.1 59 99.2 59 89 C68.9 89 78.8 89 89 89 C89 82.07 89 75.14 89 68 C52.37 68 15.74 68 -22 68 Z M8 157 C8 166.57 8 176.14 8 186 C-11.47 186 -30.94 186 -51 186 C-51 193.26 -51 200.52 -51 208 C5.1 208 61.2 208 119 208 C119 200.74 119 193.48 119 186 C99.2 186 79.4 186 59 186 C59 176.43 59 166.86 59 157 C42.17 157 25.34 157 8 157 Z M-51 246 C-51 262.83 -51 279.66 -51 297 C-4.8 297 41.4 297 89 297 C89 280.17 89 263.34 89 246 C42.8 246 -3.4 246 -51 246 Z " fill="#0D3956" transform="translate(3006,456)"/>
<path d="M0 0 C91.08 0 182.16 0 276 0 C276 41.91 276 83.82 276 127 C236.73 127 197.46 127 157 127 C157 134.26 157 141.52 157 149 C196.27 149 235.54 149 276 149 C276 161.21 276 173.42 276 186 C236.73 186 197.46 186 157 186 C157 193.26 157 200.52 157 208 C205.84 208 254.68 208 305 208 C305 220.54 305 233.08 305 246 C194.78 246 84.56 246 -29 246 C-29 233.46 -29 220.92 -29 208 C19.84 208 68.68 208 119 208 C119 200.74 119 193.48 119 186 C79.73 186 40.46 186 0 186 C0 173.79 0 161.58 0 149 C39.27 149 78.54 149 119 149 C119 141.74 119 134.48 119 127 C79.73 127 40.46 127 0 127 C0 85.09 0 43.18 0 0 Z M38 38 C38 54.83 38 71.66 38 89 C64.73 89 91.46 89 119 89 C119 72.17 119 55.34 119 38 C111.74 38 104.48 38 97 38 C97 47.9 97 57.8 97 68 C84.79 68 72.58 68 60 68 C60 58.1 60 48.2 60 38 C52.74 38 45.48 38 38 38 Z M157 38 C157 54.83 157 71.66 157 89 C183.73 89 210.46 89 238 89 C238 72.17 238 55.34 238 38 C230.74 38 223.48 38 216 38 C216 47.9 216 57.8 216 68 C203.79 68 191.58 68 179 68 C179 58.1 179 48.2 179 38 C171.74 38 164.48 38 157 38 Z " fill="#0D3956" transform="translate(2479,456)"/>
<path d="M0 0 C3.40555669 2.90252025 6.01771917 5.86427923 8.6875 9.4375 C13.12825463 14.72062457 18.62353155 15.0844382 25.07421875 15.94140625 C29.43964275 16.63205542 32.94354105 17.95755743 36.88671875 19.890625 C40.85327405 21.15171097 43.56635924 19.77376088 47.19921875 18.00390625 C48.92591797 17.07384766 48.92591797 17.07384766 50.6875 16.125 C61.19639902 10.67874211 72.00252403 8.85669161 83.60546875 11.7421875 C89.67212568 13.82048759 95.69043718 16.73639564 99.875 21.6875 C102.62508587 24.78234882 105.49127147 25.47605255 109.4375 26.5625 C115.15698134 28.15196862 119.28817961 29.81659475 123 34.5625 C123.66484354 35.87642003 124.289648 37.21129098 124.875 38.5625 C126.43207366 42.11960792 128.04332762 43.4718133 131.375 45.4375 C137.56174579 49.208663 140.85303101 54.49546987 142.80859375 61.4296875 C143.29653779 63.8054702 143.70304262 66.15612119 144 68.5625 C144.6290625 68.69785156 145.258125 68.83320313 145.90625 68.97265625 C154.10802554 71.03545221 159.52944944 74.54785534 164 81.8125 C165.70397141 88.20239279 166.20230905 94.62721483 163.5 100.8125 C160.45601078 106.05852398 155.95101884 110.23901276 150.421875 112.71875 C145.66521588 113.89162485 141.00788526 114.02870698 136.125 114.1875 C135.15046875 114.22617187 134.1759375 114.26484375 133.171875 114.3046875 C130.7814328 114.39843033 128.39098756 114.4841383 126 114.5625 C126.45890625 115.10777344 126.9178125 115.65304687 127.390625 116.21484375 C136.22374796 127.07067764 139.02147126 136.59752863 138 150.5625 C135.6572228 162.37517782 128.78311821 171.66789473 119 178.5625 C108.51510441 184.57894694 97.73755012 185.89703206 85.8203125 185.71875 C84.72542511 185.71065308 83.63053772 185.70255615 82.50247192 185.69421387 C79.36857707 185.66781687 76.23499653 185.63112266 73.10127258 185.58947754 C70.89187957 185.56111188 68.68246985 185.53643725 66.47302246 185.51269531 C55.48854224 185.39463073 44.50450061 185.25117801 33.52044678 185.09893799 C29.04750263 185.03732832 24.57453143 184.97774727 20.1015625 184.91796875 C11.40101481 184.8014056 2.70049839 184.68268677 -6 184.5625 C-6.01030746 183.91326065 -6.02061493 183.2640213 -6.03123474 182.59510803 C-6.13906136 175.86350948 -6.25367781 169.1320513 -6.37231445 162.40063477 C-6.41574006 159.88536504 -6.45740929 157.37006437 -6.49731445 154.85473633 C-6.55483293 151.24811456 -6.61857967 147.64164969 -6.68359375 144.03515625 C-6.70866249 142.33674339 -6.70866249 142.33674339 -6.73423767 140.60401917 C-6.75418289 139.56301559 -6.77412811 138.52201202 -6.79467773 137.44946289 C-6.81022202 136.52790909 -6.8257663 135.60635529 -6.84178162 134.65687561 C-6.77022756 132.57499529 -6.77022756 132.57499529 -8 131.5625 C-10.55589888 131.46743948 -13.08467972 131.43693239 -15.64086914 131.44897461 C-16.44080795 131.44882858 -17.24074677 131.44868256 -18.06492615 131.4485321 C-20.72169665 131.44923145 -23.37839793 131.45702482 -26.03515625 131.46484375 C-27.87218691 131.46670785 -29.70921806 131.46813179 -31.54624939 131.46913147 C-36.39109662 131.47295725 -41.23591408 131.48278804 -46.08074951 131.49383545 C-51.02062578 131.50404828 -55.96050685 131.50862881 -60.90039062 131.51367188 C-70.60027353 131.52441026 -80.30013429 131.5414874 -90 131.5625 C-90.27690674 132.1615918 -90.55381348 132.76068359 -90.83911133 133.37792969 C-92.57923565 136.65251064 -95.15137086 139.14592588 -97.6875 141.8125 C-98.77539685 142.97464549 -99.86263914 144.13740407 -100.94921875 145.30078125 C-101.47435059 145.86104004 -101.99948242 146.42129883 -102.54052734 146.99853516 C-104.38633635 148.97649643 -106.20383177 150.97686498 -108 153 C-108.495 153.55558594 -108.99 154.11117187 -109.5 154.68359375 C-109.995 155.30363281 -110.49 155.92367187 -111 156.5625 C-111.67546875 157.34633057 -112.3509375 158.13016113 -113.046875 158.93774414 C-116.13728039 163.60275812 -115.6766899 169.02588201 -115.75 174.4375 C-115.79447266 176.04238281 -115.79447266 176.04238281 -115.83984375 177.6796875 C-115.910228 180.30736608 -115.96307994 182.93417364 -116 185.5625 C-122.52424733 185.75893798 -129.04883214 185.93561076 -135.57397461 186.09960938 C-137.78600726 186.15741091 -139.99793363 186.21946413 -142.2097168 186.28613281 C-188.16677454 187.66016036 -188.16677454 187.66016036 -206.03125 171.75390625 C-215.5266444 161.73793101 -219.5250637 149.15626226 -219.25 135.609375 C-218.31359415 124.19692871 -213.4833982 112.42610655 -205 104.5625 C-196.7227719 97.86816811 -186.68053613 93.17868478 -176 92.5625 C-176.144375 92.01722656 -176.28875 91.47195313 -176.4375 90.91015625 C-179.19876079 79.69253428 -178.46829745 69.46893987 -172.64453125 59.1640625 C-167.40871567 51.8367281 -160.73458611 45.80632539 -151.65234375 44.12890625 C-145.92525444 43.41191362 -140.70060831 43.73499234 -135 44.5625 C-134.73058594 43.69753906 -134.46117187 42.83257812 -134.18359375 41.94140625 C-126.44271199 19.8428494 -107.62971094 2.74849383 -87.0234375 -7.41210938 C-82.76606401 -9.36412374 -78.44043855 -10.95245267 -74 -12.4375 C-72.55753906 -12.94603516 -72.55753906 -12.94603516 -71.0859375 -13.46484375 C-46.95111455 -20.52314103 -19.6127235 -15.51089351 0 0 Z " fill="#0D3956" transform="translate(502,271.4375)"/>
<path d="M0 0 C12.54 0 25.08 0 38 0 C38 12.54 38 25.08 38 38 C26.12 38 14.24 38 2 38 C2 49.55 2 61.1 2 73 C8.27 73 14.54 73 21 73 C21 146.92 21 220.84 21 297 C57.3 297 93.6 297 131 297 C131 238.26 131 179.52 131 119 C143.54 119 156.08 119 169 119 C169 189.95 169 260.9 169 334 C175.27 334 181.54 334 188 334 C188 346.54 188 359.08 188 372 C175.46 372 162.92 372 150 372 C150 359.79 150 347.58 150 335 C45.72 335 -58.56 335 -166 335 C-166 263.72 -166 192.44 -166 119 C-153.46 119 -140.92 119 -128 119 C-128 177.74 -128 236.48 -128 297 C-91.37 297 -54.74 297 -17 297 C-17 223.41 -17 149.82 -17 74 C-23.27 74 -29.54 74 -36 74 C-36 61.79 -36 49.58 -36 37 C-24.12 37 -12.24 37 0 37 C0 24.79 0 12.58 0 0 Z " fill="#0D3956" transform="translate(984,456)"/>
<path d="M0 0 C7.22531752 2.04515505 10.78070028 11.51259324 14.16015625 17.46875 C14.77181641 18.53222656 15.38347656 19.59570312 16.01367188 20.69140625 C17.1938031 22.74547249 18.36868467 24.80256623 19.53759766 26.86303711 C20.47637907 28.50627187 21.42790322 30.1424538 22.40380859 31.76391602 C25.29242028 36.57548101 25.81966605 39.08842529 25.09765625 44.59375 C23.22750531 47.02494623 21.8162728 48.23444173 19.09765625 49.59375 C17.09805613 49.633742 15.09718383 49.63721799 13.09765625 49.59375 C13.10042163 50.17976738 13.10318701 50.76578476 13.10603619 51.36956024 C13.17281375 65.74837984 13.22218508 80.12718543 13.25309277 94.5061264 C13.26844366 101.46019625 13.28930208 108.41416147 13.32397461 115.36816406 C13.35751555 122.09852566 13.37458673 128.82877933 13.38228798 135.55921936 C13.3877653 138.10720005 13.39845742 140.65517588 13.41484642 143.20310974 C13.69092523 187.9675447 4.16989056 230.96151965 -16.90234375 270.59375 C-17.46260254 271.66423584 -17.46260254 271.66423584 -18.03417969 272.75634766 C-30.10327853 295.72381261 -45.98933805 315.9010705 -63.90234375 334.59375 C-64.68222656 335.41488281 -65.46210937 336.23601562 -66.265625 337.08203125 C-70.90915961 341.85753132 -75.82864354 346.12493749 -81.03125 350.28125 C-83.9590453 352.63941982 -86.80085544 355.0816493 -89.65234375 357.53125 C-96.36987586 363.13063806 -103.51328752 367.92905572 -110.90234375 372.59375 C-111.52012695 372.98449707 -112.13791016 373.37524414 -112.77441406 373.77783203 C-122.18289943 379.68104968 -131.86919358 384.83797545 -141.90234375 389.59375 C-142.58603027 389.9222998 -143.2697168 390.25084961 -143.97412109 390.58935547 C-177.68237238 406.67791985 -214.66697409 414.46938051 -251.90234375 415.59375 C-253.52269531 415.655625 -253.52269531 415.655625 -255.17578125 415.71875 C-324.00992064 417.0784367 -391.65050079 391.2513017 -442.3203125 344.9296875 C-443.77678074 343.61203544 -445.24102759 342.30251899 -446.73022461 341.02197266 C-469.74109039 321.22857502 -487.8819024 295.37009202 -501.90234375 268.59375 C-502.48532227 267.50078613 -502.48532227 267.50078613 -503.08007812 266.38574219 C-524.61873206 225.54554089 -531.43198284 180.59268423 -531.30532026 134.89466953 C-531.29755603 131.19936614 -531.30481152 127.50408147 -531.30947876 123.80877686 C-531.31487515 117.63370644 -531.30789406 111.45874513 -531.29345703 105.28369141 C-531.27699646 98.16113024 -531.28253957 91.038825 -531.29893625 83.91626954 C-531.31255482 77.75092454 -531.31447332 71.58565637 -531.30662024 65.4203012 C-531.30196427 61.75845233 -531.30126421 58.09672406 -531.31122971 54.43488312 C-531.32151784 50.37472783 -531.30725662 46.31501661 -531.29052734 42.25488281 C-531.29660004 41.05495193 -531.30267273 39.85502106 -531.30892944 38.61872864 C-531.25487882 31.54835957 -530.84780707 26.62336941 -525.71484375 21.34375 C-521.43096277 18.67822406 -517.65624322 17.19376794 -512.5625 17.93359375 C-506.92905998 19.51770583 -504.12995468 21.75233361 -500.90234375 26.59375 C-499.89167479 29.62575687 -499.77288642 31.66389996 -499.76431274 34.83547974 C-499.75885941 35.92255722 -499.75340607 37.0096347 -499.74778748 38.12965393 C-499.74674515 39.3232402 -499.74570282 40.51682648 -499.74462891 41.74658203 C-499.73682788 43.67737751 -499.72902288 45.60817298 -499.721071 47.53896785 C-499.71335239 49.61859932 -499.70797122 51.69822636 -499.70311356 53.77786636 C-499.69238861 58.13685329 -499.67212149 62.49576372 -499.6499939 66.85470581 C-499.58825425 79.25270993 -499.5344309 91.65071314 -499.50097656 104.04882812 C-499.48242694 110.89334649 -499.45322664 117.73773968 -499.41297185 124.5821656 C-499.39220086 128.1918536 -499.37648868 131.8013858 -499.37416458 135.41113663 C-499.35615842 157.22144821 -498.66774385 179.11885118 -493.15234375 200.34375 C-492.89557861 201.36557373 -492.63881348 202.38739746 -492.37426758 203.44018555 C-482.7890692 240.63075527 -465.44478867 273.87240137 -439.90234375 302.59375 C-439.24782227 303.34084229 -439.24782227 303.34084229 -438.58007812 304.10302734 C-397.72571597 350.66186896 -338.85186735 378.33728642 -277.39013672 383.36669922 C-237.60889096 385.95640652 -198.46878001 379.48313221 -161.90234375 363.59375 C-161.25120605 363.31337891 -160.60006836 363.03300781 -159.92919922 362.74414062 C-141.49860805 354.71427018 -124.55093643 344.18834986 -108.90234375 331.59375 C-108.3182373 331.12533691 -107.73413086 330.65692383 -107.13232422 330.17431641 C-92.0665805 317.96813654 -78.35554683 304.24796986 -66.90234375 288.59375 C-66.05630183 287.46591154 -65.20994639 286.33830819 -64.36328125 285.2109375 C-48.56683643 263.91742739 -36.77985972 239.87250352 -28.90234375 214.59375 C-28.55115479 213.49184326 -28.55115479 213.49184326 -28.19287109 212.36767578 C-21.97617699 192.61870527 -18.81366832 171.77173923 -18.69702148 151.08544922 C-18.68217209 149.43002861 -18.68217209 149.43002861 -18.66702271 147.74116516 C-18.63566876 144.12694374 -18.61075447 140.51270921 -18.5859375 136.8984375 C-18.56534538 134.37923865 -18.54434834 131.86004308 -18.52296448 129.34085083 C-18.47358418 123.4090322 -18.42825939 117.47719154 -18.38494211 111.54532635 C-18.33535152 104.78582182 -18.28051519 98.02636293 -18.22526252 91.26690269 C-18.11183196 77.37589448 -18.00491004 63.48484237 -17.90234375 49.59375 C-19.30033203 49.64015625 -19.30033203 49.64015625 -20.7265625 49.6875 C-23.90234375 49.59375 -23.90234375 49.59375 -26.71484375 48.09375 C-29.06506509 45.40778275 -29.77657237 43.52948901 -30.12768555 39.99267578 C-29.64509861 34.85519015 -26.53274003 30.60180372 -23.90234375 26.28125 C-23.33644531 25.31251953 -22.77054688 24.34378906 -22.1875 23.34570312 C-20.45850775 20.40720042 -18.68767922 17.49831616 -16.90234375 14.59375 C-16.28875 13.57877441 -15.67515625 12.56379883 -15.04296875 11.51806641 C-14.13804687 10.04926025 -14.13804687 10.04926025 -13.21484375 8.55078125 C-12.67472656 7.67010986 -12.13460937 6.78943848 -11.578125 5.88208008 C-8.25049278 1.33809745 -5.64735997 0.26945654 0 0 Z " fill="#0D3956" transform="translate(729.90234375,503.40625)"/>
<path d="M0 0 C0.9688916 0.16628906 1.9377832 0.33257812 2.93603516 0.50390625 C53.62522084 9.44467394 101.90375946 32.13913952 139.44921875 67.6015625 C141.54094594 69.56836264 143.66697395 71.4185005 145.875 73.25 C161.7792823 87.10425007 174.48559439 104.4630827 186 122 C186.37833984 122.57202148 186.75667969 123.14404297 187.14648438 123.73339844 C215.87245747 167.69909335 226.49644726 218.33380566 226.46883965 270.16968346 C226.46871799 273.20478322 226.4773563 276.23983717 226.48561716 279.2749238 C226.50465366 286.42924629 226.50780206 293.58345214 226.50097656 300.73779297 C226.49428994 308.09271037 226.51742903 315.44713217 226.55429029 322.80194902 C226.58499491 329.16173427 226.59634833 335.52135962 226.59245348 341.88121748 C226.59039361 345.66118452 226.5957526 349.44076151 226.62034607 353.22065735 C226.64677349 357.41762494 226.63288012 361.61353322 226.61523438 365.81054688 C226.63512924 367.66822441 226.63512924 367.66822441 226.65542603 369.56343079 C226.58531754 376.73109434 226.0067574 380.73000711 221 386 C216.12625336 389.05803711 212.01016176 389.48465683 206.4375 388.703125 C202.40617954 387.5402441 199.48445334 385.3667166 197 382 C194.26384003 376.0369256 194.72235646 369.86801369 194.74462891 363.4465332 C194.73907005 361.50503981 194.73350689 359.56354642 194.72778487 357.6220535 C194.72345224 355.53956355 194.72391316 353.45712137 194.72560501 351.37462807 C194.72845777 347.00222379 194.71400515 342.62997867 194.69662476 338.25761414 C194.64980994 325.82451854 194.62573248 313.3914318 194.61914062 300.95825195 C194.61534436 294.08767725 194.59694416 287.21728143 194.56404626 280.34678334 C194.54740939 276.72694989 194.53782195 273.10744107 194.54698563 269.48757362 C194.67541462 213.8630602 179.16370612 161.63994924 144 118 C143.52095215 117.40525879 143.0419043 116.81051758 142.54833984 116.19775391 C131.71059884 102.88805438 119.67735384 90.40381936 106 80 C105.47035645 79.58862793 104.94071289 79.17725586 104.39501953 78.75341797 C61.58091155 45.58444867 8.8933111 27.79782398 -45.1875 27.75 C-45.88253632 27.74932526 -46.57757263 27.74865051 -47.29367065 27.74795532 C-112.45001024 27.84739092 -173.77901863 54.90058328 -219.8125 100.5625 C-225.27020566 106.07301168 -230.28194263 111.83848102 -235 118 C-235.62938477 118.81476807 -235.62938477 118.81476807 -236.27148438 119.64599609 C-247.5942979 134.37805092 -257.22283103 150.12298726 -265 167 C-265.4964502 168.06758545 -265.4964502 168.06758545 -266.00292969 169.15673828 C-281.598552 203.11639243 -286.22632008 238.37695737 -286.4140625 275.359375 C-286.43282424 277.72976314 -286.45240114 280.10014495 -286.4727478 282.47052002 C-286.52354708 288.63845039 -286.56344831 294.80640229 -286.60089111 300.97442627 C-286.6412626 307.29680476 -286.69220174 313.61909776 -286.7421875 319.94140625 C-286.83832661 332.29421032 -286.92292492 344.64706327 -287 357 C-285.89398438 357.12503906 -284.78796875 357.25007813 -283.6484375 357.37890625 C-279.60586411 358.06709594 -278.48469226 358.84635213 -276 362 C-274.50343949 364.99312103 -274.60590362 366.62578429 -275 370 C-276.58544991 373.5556438 -278.56060502 376.85258753 -280.5625 380.1875 C-281.11172119 381.12134521 -281.66094238 382.05519043 -282.22680664 383.01733398 C-283.80395246 385.68683289 -285.39952157 388.34444584 -287 391 C-287.38768555 391.65452148 -287.77537109 392.30904297 -288.17480469 392.98339844 C-291.29234264 398.24594792 -293.90599896 402.45154726 -299 406 C-303.28113028 406.70054859 -305.21961067 406.52025955 -308.84765625 404.1015625 C-313.02798732 400.43587403 -315.38474358 395.64459487 -318 390.8125 C-318.99889743 389.00590035 -319.99889537 387.19990874 -321 385.39453125 C-321.48799072 384.50548096 -321.97598145 383.61643066 -322.47875977 382.70043945 C-324.49920803 379.11382763 -326.65838325 375.61910837 -328.84350586 372.13085938 C-330.42844344 369.21058595 -330.67941866 367.24611136 -330 364 C-328.60298881 360.7648162 -327.67784394 359.36499289 -324.5625 357.6875 C-322 357 -322 357 -318 357 C-318.00184359 356.44729337 -318.00368717 355.89458673 -318.00558662 355.32513142 C-318.05007443 341.77351821 -318.08287644 328.22191808 -318.10362434 314.67024708 C-318.11399977 308.1163184 -318.12804302 301.56244297 -318.15087891 295.00854492 C-318.17283229 288.66723302 -318.18461536 282.32597188 -318.18975449 275.98462486 C-318.19341032 273.58210134 -318.20054726 271.17958015 -318.21146011 268.77707863 C-318.29421356 249.77890351 -317.58306076 230.99812601 -313.875 212.3125 C-313.55631958 210.69722412 -313.55631958 210.69722412 -313.23120117 209.04931641 C-306.34065418 175.73010182 -293.05692653 142.63398766 -273 115 C-272.56751953 114.40058594 -272.13503906 113.80117187 -271.68945312 113.18359375 C-256.40955762 92.09775715 -238.91013961 71.69006196 -218 56 C-216.80508022 55.06626673 -215.61114559 54.13127197 -214.41796875 53.1953125 C-178.9536521 25.65675006 -136.27498165 7.25186429 -92 0 C-91.13584473 -0.14953125 -90.27168945 -0.2990625 -89.38134766 -0.453125 C-60.46646899 -5.29575402 -28.8374128 -5.11055493 0 0 Z " fill="#0D3956" transform="translate(516,105)"/>
<path d="M0 0 C2.9799291 2.07299415 4.7036791 3.55446934 5.44921875 7.19140625 C5.63769435 11.13639562 5.53583612 13.28555184 3.125 16.5 C1 18 1 18 -1 19 C-1 22.3 -1 25.6 -1 29 C5.81941095 25.7429679 9.94293783 23.02610508 13 16 C13.86501969 13.32754443 14.45685844 10.76508428 15 8 C18.96 8 22.92 8 27 8 C27.50374103 17.06733856 25.95891742 24.1358442 20.0625 31.25 C15.17893322 36.32570711 9.62812236 39.64035007 3 42 C1.68 42 0.36 42 -1 42 C-1.37663917 50.90290435 -1.65786138 59.80293104 -1.82899475 68.71216202 C-1.91128793 72.85302995 -2.0220802 76.98832156 -2.20703125 81.12597656 C-3.21895419 104.38993101 -0.62588256 119.70663805 12.93626404 138.98991394 C16.31819044 143.92266197 19.22840857 149.11948285 22.1875 154.3125 C23.31689912 156.24732771 24.44813809 158.18108382 25.58203125 160.11328125 C31.158882 169.68259509 36.57940183 179.34157872 42 189 C42.66 189 43.32 189 44 189 C44.27674561 188.49662109 44.55349121 187.99324219 44.83862305 187.47460938 C46.11924101 185.14844214 47.40335055 182.82421943 48.6875 180.5 C49.12255859 179.70851563 49.55761719 178.91703125 50.00585938 178.1015625 C50.44091797 177.31523438 50.87597656 176.52890625 51.32421875 175.71875 C51.71697998 175.00654297 52.10974121 174.29433594 52.5144043 173.56054688 C54 171 54 171 55.2558136 169.34375 C59.54614168 163.40490897 59.73332494 158.24508833 59.70703125 151.0625 C59.72215256 149.94182129 59.73727386 148.82114258 59.75285339 147.66650391 C59.79560935 144.11079597 59.80455726 140.55593901 59.8125 137 C59.83565352 134.57940465 59.86102062 132.1588294 59.88867188 129.73828125 C59.95140483 123.82551265 59.98643482 117.91307495 60 112 C59.21367188 111.71511719 58.42734375 111.43023438 57.6171875 111.13671875 C54.20850632 109.65623185 53.3733725 108.43343125 52 105 C52 100.71383323 52.59400594 98.57823396 55.0625 95.0625 C58.38485569 92.72978218 60.10517249 92.31929715 64.06640625 92.56640625 C67.10618646 93.24805393 68.86696044 94.80232287 71 97 C72.57455739 100.14911479 72.34799118 102.52008816 72 106 C70.58067853 108.51532261 69.13759113 109.96183171 67 112 C66.01 112 65.02 112 64 112 C62.11917991 151.88856708 62.11917991 151.88856708 78.78271484 186.92089844 C82.63460576 192.26994581 85.7579977 198.01607088 89 203.75 C90.16299396 205.74693514 91.32927375 207.74196316 92.5 209.734375 C92.9846875 210.56163086 93.469375 211.38888672 93.96875 212.24121094 C94.3090625 212.82161133 94.649375 213.40201172 95 214 C101.03610484 208.48173191 105.27773166 200.94277025 105.87974548 192.77349854 C105.91716595 190.539741 105.91760194 188.30514315 105.88647461 186.07128906 C105.89725037 184.84058685 105.90802612 183.60988464 105.91912842 182.34188843 C105.94164407 179.0069966 105.9337732 175.67491392 105.91168666 172.3402071 C105.89592692 168.84077434 105.9199826 165.34160521 105.93959045 161.84222412 C105.97068409 155.2338411 105.96661409 148.62597951 105.94951588 142.01756454 C105.93177206 134.48649 105.95382917 126.95569057 105.97902286 119.42465639 C106.02991071 103.94965772 106.03148837 88.47506381 106 73 C105.21367188 72.70222656 104.42734375 72.40445313 103.6171875 72.09765625 C100.46200785 70.77436449 99.4387021 70.11718788 98 67 C97.71198623 62.40025072 98.14128528 59.06688798 101.0625 55.4375 C104.88380097 53.56750166 107.82601256 53.19049941 112 54 C115.00697829 55.53547827 116.53577667 56.61886352 117.62890625 59.87109375 C118.25803589 63.3743525 118.1850497 65.52709521 116.875 68.875 C114.73180436 71.30395506 113.00017982 71.90813128 110 73 C109.87295092 89.10046139 109.81012727 105.19974685 109.82121754 121.30064869 C109.82491368 128.77876766 109.80855727 136.25578406 109.74291992 143.73364258 C109.68568036 150.26082354 109.66817631 156.78677459 109.6959936 163.31416625 C109.70936467 166.76252261 109.70447123 170.20841065 109.65177345 173.65644264 C109.42670521 191.39521501 111.14417816 203.64375326 122 218 C122.95694414 216.57456182 123.91255676 215.14822971 124.86761475 213.7215271 C125.39991573 212.92733557 125.93221672 212.13314404 126.48064804 211.31488609 C128.45618651 208.3049538 130.24252366 205.23574497 132.015625 202.1015625 C132.35752869 201.49992279 132.69943237 200.89828308 133.05169678 200.27841187 C134.12095503 198.39571005 135.18572513 196.51052253 136.25 194.625 C137.32935717 192.71852149 138.40967696 190.81259722 139.4911499 188.90731812 C140.46244607 187.19529649 141.4310097 185.48172544 142.39941406 183.76806641 C143.53398181 181.80593567 144.74275013 179.88587481 146 178 C146.31180418 175.50615598 146.31180418 175.50615598 146.2784729 172.66596985 C146.28963638 171.55959167 146.30079987 170.4532135 146.31230164 169.31330872 C146.31554192 167.49206734 146.31554192 167.49206734 146.31884766 165.6340332 C146.32889328 164.35587738 146.3389389 163.07772156 146.34928894 161.76083374 C146.37661937 158.25493763 146.39174728 154.74908178 146.40471697 151.24310708 C146.42033425 147.57952008 146.44712891 143.91601544 146.4727478 140.25248718 C146.5195605 133.31463004 146.55629251 126.37675744 146.58942068 119.43882293 C146.6276245 111.54042476 146.67703919 103.64210925 146.72740483 95.74378073 C146.83076172 79.49591316 146.92000986 63.24799976 147 47 C146.21238281 46.70480469 145.42476562 46.40960937 144.61328125 46.10546875 C141.53180839 44.80194585 140.52444891 43.96866366 139 41 C138.58499925 37.19582642 138.69541932 34.7213753 140.1875 31.1875 C142.38472158 28.53568085 143.64304765 27.76294372 147 27 C150.82875874 27.13434241 153.19714818 27.45068033 156.375 29.625 C158.57752819 32.84407966 158.93292916 35.10989133 159 39 C157.875 42.3125 157.875 42.3125 156 45 C153.3828125 46.16796875 153.3828125 46.16796875 151 47 C150.80209859 63.64871554 150.68691625 80.29574534 150.66578102 96.9455328 C150.65410908 104.67941243 150.6170479 112.41149683 150.51660156 120.14477539 C150.42894779 126.89842997 150.39260817 133.65025099 150.41372812 140.4044705 C150.42319427 143.96988843 150.40981195 147.53136272 150.33458328 151.09608269 C149.94406935 170.63727738 153.34267871 184.20538477 164.36585236 200.55444145 C166.5119786 203.76619371 168.40035184 207.07684346 170.2890625 210.4453125 C171.39866312 212.33993669 172.5104717 214.23327037 173.625 216.125 C175.27885408 218.94364522 176.9321259 221.7626207 178.58300781 224.58300781 C179.47885445 226.1110715 180.37873079 227.63678614 181.28417969 229.15917969 C184 233.77916849 184 233.77916849 184 236 C188.62 236 193.24 236 198 236 C198 237.65 198 239.3 198 241 C52.14 241 -93.72 241 -244 241 C-244 239.35 -244 237.7 -244 236 C-243.00742188 236.20625 -242.01484375 236.4125 -240.9921875 236.625 C-236.33044425 237.2035995 -232.24682382 237.19564332 -228 235 C-222.75528139 229.49514551 -219.62253084 222.20887296 -216.36502075 215.41954041 C-214.60361252 211.95620669 -212.56019092 208.78176674 -210.39074707 205.55970764 C-199.66762773 189.2231191 -196.86075824 176.11745771 -197.31640625 156.4296875 C-197.32196481 153.79884399 -197.32085151 151.1679789 -197.3134613 148.53713989 C-197.30716788 142.3989812 -197.37595539 136.26425364 -197.4743318 130.12697613 C-197.58278942 123.12053426 -197.60358869 116.11459645 -197.6183883 109.10742927 C-197.65063295 94.73702318 -197.78853252 80.36887754 -198 66 C-198.78761719 65.86722656 -199.57523437 65.73445312 -200.38671875 65.59765625 C-203 65 -203 65 -204.8125 63.4375 C-206.50188069 59.96982384 -206.68999864 56.73934747 -206 53 C-204.20636089 50.1899654 -202.98119065 48.49059532 -200 47 C-192.43902439 46.5799458 -192.43902439 46.5799458 -189 49 C-186.331053 53.0034205 -186.16732482 56.29249972 -187 61 C-189.375 64.0625 -189.375 64.0625 -192 66 C-192.66 66 -193.32 66 -194 66 C-194.10355567 81.3352682 -194.14881714 96.66996972 -194.12697029 112.00555229 C-194.11814413 119.12826008 -194.12752607 126.25002781 -194.18164062 133.37255859 C-194.22882667 139.58951287 -194.23994765 145.80537521 -194.2099179 152.02245247 C-194.19525551 155.30699135 -194.20256754 158.5889576 -194.24249649 161.87334824 C-194.4197121 177.52275388 -193.44675011 189.10699896 -184.29217148 202.10678482 C-182.10000987 205.31861367 -180.26001756 208.72732485 -178.375 212.125 C-177.25113719 214.08398617 -176.12661059 216.04259278 -175 218 C-171.07437733 212.54242702 -167.72826804 206.8228109 -164.5 200.9375 C-160.36074333 193.39209752 -156.09217286 185.93051459 -151.75 178.5 C-151.17185547 177.50991943 -150.59371094 176.51983887 -149.99804688 175.49975586 C-145.12591243 167.17699233 -145.12591243 167.17699233 -143.48539734 164.87095642 C-138.82457632 157.98725635 -138.12633243 152.52194143 -138.23828125 144.31640625 C-138.23491257 143.13908432 -138.23154388 141.96176239 -138.22807312 140.74876404 C-138.2283704 138.27883501 -138.24347051 135.80886735 -138.27270508 133.33911133 C-138.3126474 129.54851116 -138.29330162 125.76136699 -138.26757812 121.97070312 C-138.27513064 119.56509056 -138.28607743 117.15948573 -138.30078125 114.75390625 C-138.29379715 113.61957657 -138.28681305 112.48524689 -138.27961731 111.31654358 C-138.2986058 110.26792648 -138.3175943 109.21930939 -138.3371582 108.13891602 C-138.34415237 107.2164357 -138.35114655 106.29395538 -138.35835266 105.34352112 C-138.79798687 102.74583954 -138.79798687 102.74583954 -141.47892761 101.30381775 C-142.72685844 100.65842796 -142.72685844 100.65842796 -144 100 C-145.74169538 96.51660925 -145.5776262 92.80051784 -145 89 C-142.6066679 85.62117821 -140.96721278 84.32926392 -137.0625 83 C-133.25275797 83 -131.19501129 83.966811 -128 86 C-125.53807229 89.69289156 -125.3147695 92.71313113 -126 97 C-127.76608365 99.96449755 -128.7833072 101.64254099 -132.140625 102.62890625 C-132.75421875 102.75136719 -133.3678125 102.87382813 -134 103 C-134.11184778 110.23734284 -134.14308233 117.4720409 -134.12207031 124.71020508 C-134.12399958 127.16471172 -134.14340947 129.61927668 -134.18164062 132.07348633 C-134.4080097 147.49487949 -133.61468374 158.64280694 -124.28881836 171.21060181 C-122.30793327 173.96086694 -120.71139799 176.86084672 -119.05859375 179.8203125 C-118.45926025 180.8633252 -117.85992676 181.90633789 -117.24243164 182.98095703 C-116.6468042 184.01849121 -116.05117676 185.05602539 -115.4375 186.125 C-110.05665652 195.47759688 -104.61169347 204.78404813 -99 214 C-98.60026474 213.46580948 -98.20052948 212.93161896 -97.78868103 212.38124084 C-96.48571855 210.6466289 -95.14266219 208.94191939 -93.77687073 207.2563324 C-84.92399524 195.35167679 -85.75137433 182.89570849 -85.90234375 168.59765625 C-85.89668189 166.06317495 -85.88705943 163.52869971 -85.87367249 160.99424744 C-85.85168565 155.04448799 -85.8691264 149.09570352 -85.90644604 143.14609855 C-85.9467406 136.36222242 -85.93548804 129.57872043 -85.92032993 122.79477704 C-85.8903331 108.86286809 -85.92368981 94.93170404 -86 81 C-86.62519531 80.85820313 -87.25039063 80.71640625 -87.89453125 80.5703125 C-90.54367841 79.85273275 -91.42109437 79.25557947 -93 77 C-94.07360679 72.93563145 -94.23944884 70.66793623 -92.8125 66.6875 C-90.91132939 63.86852288 -90.22782994 62.89661943 -87 62 C-82.76755476 61.5382787 -80.72893039 61.52461062 -77.125 63.875 C-74.38653854 66.61346146 -74.04461856 67.40880413 -73.75 71.3125 C-74.01620783 75.23906554 -74.46044369 77.02258916 -77 80 C-79.61328125 80.6328125 -79.61328125 80.6328125 -82 81 C-82.17439835 95.35344755 -82.27115212 109.70570567 -82.28240681 124.06024361 C-82.28895729 130.72819636 -82.32069535 137.3939849 -82.40795898 144.06152344 C-82.49149579 150.51378027 -82.5097924 156.96341431 -82.48558617 163.41613388 C-82.48735816 165.85981327 -82.51141368 168.30359628 -82.55968666 170.74679947 C-82.89956258 189.03700525 -79.06298736 201.2866378 -68 216 C-67.67 216.33 -67.34 216.66 -67 217 C-66.64921387 216.36835937 -66.29842773 215.73671875 -65.93701172 215.0859375 C-58.88024864 202.39427938 -51.74112159 189.76263087 -44.39404297 177.23632812 C-39.87399557 169.52204707 -35.42554748 161.76866738 -31 154 C-25.75011535 144.78785411 -20.46587409 135.59726631 -15.125 126.4375 C-14.53589844 125.42623047 -13.94679688 124.41496094 -13.33984375 123.37304688 C-11.28867339 119.862671 -9.2557708 116.3836562 -7 113 C-6.78604599 109.98102096 -6.68866857 107.05130414 -6.68115234 104.03051758 C-6.67110672 103.11324387 -6.6610611 102.19597015 -6.65071106 101.25090027 C-6.61979142 98.21545037 -6.6028195 95.18008902 -6.5859375 92.14453125 C-6.56723292 90.04130792 -6.54766005 87.93809214 -6.5272522 85.83488464 C-6.47585001 80.29636077 -6.43626756 74.75781255 -6.39910889 69.21917725 C-6.35911991 63.56858252 -6.3080043 57.9180898 -6.2578125 52.26757812 C-6.16095747 41.17845699 -6.07658335 30.08927836 -6 19 C-6.78761719 18.70351563 -7.57523438 18.40703125 -8.38671875 18.1015625 C-11.50216041 16.788327 -12.48903374 16.02193252 -14 13 C-14.64005872 7.95953757 -14.64005872 7.95953757 -14 5 C-9.84841158 -0.27363934 -6.50928829 -1.82260072 0 0 Z " fill="#0D3956" transform="translate(494,495)"/>
<path d="M0 0 C12.54 0 25.08 0 38 0 C38 19.47 38 38.94 38 59 C74.63 59 111.26 59 149 59 C149 39.53 149 20.06 149 0 C161.54 0 174.08 0 187 0 C187 19.47 187 38.94 187 59 C216.37 59 245.74 59 276 59 C276 71.54 276 84.08 276 97 C194.82 97 113.64 97 30 97 C30 87.43 30 77.86 30 68 C22.74 68 15.48 68 8 68 C8 156.11 8 244.22 8 335 C-4.54 335 -17.08 335 -30 335 C-30 276.26 -30 217.52 -30 157 C-39.57 157 -49.14 157 -59 157 C-59 144.46 -59 131.92 -59 119 C-49.43 119 -39.86 119 -30 119 C-30 99.2 -30 79.4 -30 59 C-20.1 59 -10.2 59 0 59 C0 39.53 0 20.06 0 0 Z " fill="#0D3956" transform="translate(2101,456)"/>
<path d="M0 0 C12.21 0 24.42 0 37 0 C37 19.47 37 38.94 37 59 C46.9 59 56.8 59 67 59 C67 71.54 67 84.08 67 97 C57.1 97 47.2 97 37 97 C37 175.54 37 254.08 37 335 C24.79 335 12.58 335 0 335 C0 295.73 0 256.46 0 216 C-7.26 216 -14.52 216 -22 216 C-22 235.8 -22 255.6 -22 276 C-34.54 276 -47.08 276 -60 276 C-60 253.56 -60 231.12 -60 208 C-50.1 208 -40.2 208 -30 208 C-30 188.53 -30 169.06 -30 149 C-20.1 149 -10.2 149 0 149 C0 131.84 0 114.68 0 97 C-19.8 97 -39.6 97 -60 97 C-60 84.46 -60 71.92 -60 59 C-40.2 59 -20.4 59 0 59 C0 39.53 0 20.06 0 0 Z " fill="#0D3956" transform="translate(3325,456)"/>
<path d="M0 0 C6.6 0 13.2 0 20 0 C20 4.62 20 9.24 20 14 C36.83 14 53.66 14 71 14 C71 9.38 71 4.76 71 0 C77.93 0 84.86 0 92 0 C92 4.62 92 9.24 92 14 C105.86 14 119.72 14 134 14 C134 20.93 134 27.86 134 35 C120.14 35 106.28 35 92 35 C92 37.31 92 39.62 92 42 C105.86 42 119.72 42 134 42 C134 58.17 134 74.34 134 91 C129.38 91 124.76 91 120 91 C120 107.83 120 124.66 120 142 C124.62 142 129.24 142 134 142 C134 148.6 134 155.2 134 162 C122.45 162 110.9 162 99 162 C99 157.38 99 152.76 99 148 C82.5 148 66 148 49 148 C49 152.62 49 157.24 49 162 C32.83 162 16.66 162 0 162 C0 143.52 0 125.04 0 106 C-9.57 106 -19.14 106 -29 106 C-29 99.07 -29 92.14 -29 85 C-24.05 85 -19.1 85 -14 85 C-14 80.38 -14 75.76 -14 71 C-9.38 71 -4.76 71 0 71 C0 68.36 0 65.72 0 63 C-9.57 63 -19.14 63 -29 63 C-29 51.45 -29 39.9 -29 28 C-24.05 28 -19.1 28 -14 28 C-14 23.38 -14 18.76 -14 14 C-9.38 14 -4.76 14 0 14 C0 9.38 0 4.76 0 0 Z M6 20 C6 24.95 6 29.9 6 35 C1.38 35 -3.24 35 -8 35 C-8 37.31 -8 39.62 -8 42 C1.24 42 10.48 42 20 42 C20 53.55 20 65.1 20 77 C15.38 77 10.76 77 6 77 C6 79.64 6 82.28 6 85 C13.26 85 20.52 85 28 85 C28 70.81 28 56.62 28 42 C42.19 42 56.38 42 71 42 C71 39.69 71 37.38 71 35 C52.19 35 33.38 35 14 35 C14 30.05 14 25.1 14 20 C11.36 20 8.72 20 6 20 Z M49 63 C49 65.64 49 68.28 49 71 C51.64 71 54.28 71 57 71 C57 68.36 57 65.72 57 63 C54.36 63 51.72 63 49 63 Z M77 63 C77 65.64 77 68.28 77 71 C79.64 71 82.28 71 85 71 C85 68.36 85 65.72 85 63 C82.36 63 79.72 63 77 63 Z M106 63 C106 65.64 106 68.28 106 71 C108.64 71 111.28 71 114 71 C114 68.36 114 65.72 114 63 C111.36 63 108.72 63 106 63 Z M35 91 C35 95.95 35 100.9 35 106 C30.05 106 25.1 106 20 106 C20 117.88 20 129.76 20 142 C27.26 142 34.52 142 42 142 C42 125.17 42 108.34 42 91 C39.69 91 37.38 91 35 91 Z M63 91 C63 93.64 63 96.28 63 99 C74.88 99 86.76 99 99 99 C99 96.36 99 93.72 99 91 C87.12 91 75.24 91 63 91 Z M63 120 C63 122.64 63 125.28 63 128 C74.88 128 86.76 128 99 128 C99 125.36 99 122.72 99 120 C87.12 120 75.24 120 63 120 Z " fill="#0D3956" transform="translate(1611,193)"/>
<path d="M0 0 C6.93 0 13.86 0 21 0 C21 4.62 21 9.24 21 14 C44.1 14 67.2 14 91 14 C91 20.6 91 27.2 91 34 C67.9 34 44.8 34 21 34 C21 36.64 21 39.28 21 42 C44.1 42 67.2 42 91 42 C91 81.27 91 120.54 91 161 C79.78 161 68.56 161 57 161 C57 154.4 57 147.8 57 141 C61.62 141 66.24 141 71 141 C71 114.93 71 88.86 71 62 C63.74 62 56.48 62 49 62 C49 66.62 49 71.24 49 76 C44.38 76 39.76 76 35 76 C35 78.64 35 81.28 35 84 C44.24 84 53.48 84 63 84 C63 90.6 63 97.2 63 104 C49.14 104 35.28 104 21 104 C21 106.64 21 109.28 21 112 C34.86 112 48.72 112 63 112 C63 118.93 63 125.86 63 133 C49.14 133 35.28 133 21 133 C21 142.24 21 151.48 21 161 C14.07 161 7.14 161 0 161 C0 151.76 0 142.52 0 133 C-13.86 133 -27.72 133 -42 133 C-42 126.07 -42 119.14 -42 112 C-28.14 112 -14.28 112 0 112 C0 109.36 0 106.72 0 104 C-13.86 104 -27.72 104 -42 104 C-42 97.4 -42 90.8 -42 84 C-37.38 84 -32.76 84 -28 84 C-28 76.74 -28 69.48 -28 62 C-35.26 62 -42.52 62 -50 62 C-50 94.67 -50 127.34 -50 161 C-56.6 161 -63.2 161 -70 161 C-70 121.73 -70 82.46 -70 42 C-46.9 42 -23.8 42 0 42 C0 39.36 0 36.72 0 34 C-23.1 34 -46.2 34 -70 34 C-70 27.4 -70 20.8 -70 14 C-46.9 14 -23.8 14 0 14 C0 9.38 0 4.76 0 0 Z M-8 62 C-8 69.26 -8 76.52 -8 84 C-0.41 84 7.18 84 15 84 C15 79.38 15 74.76 15 70 C19.62 70 24.24 70 29 70 C29 67.36 29 64.72 29 62 C16.79 62 4.58 62 -8 62 Z " fill="#0D3956" transform="translate(888,195)"/>
<path d="M0 0 C12.54 0 25.08 0 38 0 C38 22.11 38 44.22 38 67 C28.1 67 18.2 67 8 67 C8 86.8 8 106.6 8 127 C-1.57 127 -11.14 127 -21 127 C-21 133.93 -21 140.86 -21 148 C5.73 148 32.46 148 60 148 C60 138.43 60 128.86 60 119 C69.9 119 79.8 119 90 119 C90 99.2 90 79.4 90 59 C102.21 59 114.42 59 127 59 C127 78.8 127 98.6 127 119 C136.9 119 146.8 119 157 119 C157 141.11 157 163.22 157 186 C144.46 186 131.92 186 119 186 C119 166.53 119 147.06 119 127 C112.07 127 105.14 127 98 127 C98 136.57 98 146.14 98 156 C88.1 156 78.2 156 68 156 C68 165.9 68 175.8 68 186 C26.09 186 -15.82 186 -59 186 C-59 163.89 -59 141.78 -59 119 C-49.1 119 -39.2 119 -29 119 C-29 99.2 -29 79.4 -29 59 C-19.43 59 -9.86 59 0 59 C0 39.53 0 20.06 0 0 Z " fill="#0D3956" transform="translate(3443,605)"/>
<path d="M0 0 C12.54 0 25.08 0 38 0 C38 41.91 38 83.82 38 127 C28.1 127 18.2 127 8 127 C8 143.83 8 160.66 8 178 C27.8 178 47.6 178 68 178 C68 190.54 68 203.08 68 216 C-13.18 216 -94.36 216 -178 216 C-178 203.46 -178 190.92 -178 178 C-129.16 178 -80.32 178 -30 178 C-30 158.53 -30 139.06 -30 119 C-20.1 119 -10.2 119 0 119 C0 79.73 0 40.46 0 0 Z " fill="#0D3956" transform="translate(2309,575)"/>
<path d="M0 0 C41.91 0 83.82 0 127 0 C127 29.37 127 58.74 127 89 C136.9 89 146.8 89 157 89 C157 121.01 157 153.02 157 186 C144.46 186 131.92 186 119 186 C119 156.63 119 127.26 119 97 C109.43 97 99.86 97 90 97 C90 77.53 90 58.06 90 38 C60.3 38 30.6 38 0 38 C0 25.46 0 12.92 0 0 Z " fill="#0D3956" transform="translate(3443,456)"/>
<path d="M0 0 C20.79 0 41.58 0 63 0 C63 14.19 63 28.38 63 43 C65.64 43 68.28 43 71 43 C71 38.38 71 33.76 71 29 C75.62 29 80.24 29 85 29 C85 24.05 85 19.1 85 14 C89.95 14 94.9 14 100 14 C100 9.38 100 4.76 100 0 C106.6 0 113.2 0 120 0 C120 6.93 120 13.86 120 21 C115.38 21 110.76 21 106 21 C106 25.62 106 30.24 106 35 C101.38 35 96.76 35 92 35 C92 39.62 92 44.24 92 49 C87.38 49 82.76 49 78 49 C78 51.64 78 54.28 78 57 C82.62 57 87.24 57 92 57 C92 61.62 92 66.24 92 71 C96.62 71 101.24 71 106 71 C106 75.62 106 80.24 106 85 C110.62 85 115.24 85 120 85 C120 89.95 120 94.9 120 100 C124.62 100 129.24 100 134 100 C134 106.6 134 113.2 134 120 C127.4 120 120.8 120 114 120 C114 115.38 114 110.76 114 106 C109.38 106 104.76 106 100 106 C100 101.38 100 96.76 100 92 C95.05 92 90.1 92 85 92 C85 87.38 85 82.76 85 78 C80.38 78 75.76 78 71 78 C71 73.05 71 68.1 71 63 C68.36 63 65.72 63 63 63 C63 86.43 63 109.86 63 134 C46.83 134 30.66 134 14 134 C14 127.4 14 120.8 14 114 C23.57 114 33.14 114 43 114 C43 83.31 43 52.62 43 21 C28.81 21 14.62 21 0 21 C0 14.07 0 7.14 0 0 Z " fill="#0D3956" transform="translate(1426,221)"/>
<path d="M0 0 C12.54 0 25.08 0 38 0 C38 51.81 38 103.62 38 157 C25.46 157 12.92 157 0 157 C0 105.19 0 53.38 0 0 Z " fill="#0D3956" transform="translate(2190,575)"/>
<path d="M0 0 C29.7 0 59.4 0 90 0 C90 11.22 90 22.44 90 34 C85.38 34 80.76 34 76 34 C76 41.59 76 49.18 76 57 C85.24 57 94.48 57 104 57 C104 63.6 104 70.2 104 77 C92.78 77 81.56 77 70 77 C70 72.38 70 67.76 70 63 C58.12 63 46.24 63 34 63 C34 67.62 34 72.24 34 77 C18.16 77 2.32 77 -14 77 C-14 70.4 -14 63.8 -14 57 C-0.14 57 13.72 57 28 57 C28 54.36 28 51.72 28 49 C23.38 49 18.76 49 14 49 C14 39.43 14 29.86 14 20 C9.38 20 4.76 20 0 20 C0 13.4 0 6.8 0 0 Z M34 20 C34 27.59 34 35.18 34 43 C41.26 43 48.52 43 56 43 C56 38.05 56 33.1 56 28 C60.62 28 65.24 28 70 28 C70 25.36 70 22.72 70 20 C58.12 20 46.24 20 34 20 Z " fill="#0D3956" transform="translate(1067,279)"/>
<path d="M0 0 C12.21 0 24.42 0 37 0 C37 22.44 37 44.88 37 68 C27.43 68 17.86 68 8 68 C8 87.47 8 106.94 8 127 C-4.54 127 -17.08 127 -30 127 C-30 104.89 -30 82.78 -30 60 C-20.1 60 -10.2 60 0 60 C0 40.2 0 20.4 0 0 Z " fill="#0D3956" transform="translate(3414,515)"/>
<path d="M0 0 C6.6 0 13.2 0 20 0 C20 9.24 20 18.48 20 28 C24.62 28 29.24 28 34 28 C34 34.6 34 41.2 34 48 C29.38 48 24.76 48 20 48 C20 59.88 20 71.76 20 84 C24.62 84 29.24 84 34 84 C34 90.6 34 97.2 34 104 C29.38 104 24.76 104 20 104 C20 122.81 20 141.62 20 161 C8.78 161 -2.44 161 -14 161 C-14 154.4 -14 147.8 -14 141 C-9.38 141 -4.76 141 0 141 C0 133.41 0 125.82 0 118 C-4.62 118 -9.24 118 -14 118 C-14 111.4 -14 104.8 -14 98 C-9.38 98 -4.76 98 0 98 C0 81.5 0 65 0 48 C-4.62 48 -9.24 48 -14 48 C-14 41.4 -14 34.8 -14 28 C-9.38 28 -4.76 28 0 28 C0 18.76 0 9.52 0 0 Z " fill="#0D3956" transform="translate(1025,195)"/>
<path d="M0 0 C20.46 0 40.92 0 62 0 C62 18.48 62 36.96 62 56 C64.64 56 67.28 56 70 56 C70 51.38 70 46.76 70 42 C76.6 42 83.2 42 90 42 C90 53.22 90 64.44 90 76 C74.16 76 58.32 76 42 76 C42 57.52 42 39.04 42 20 C34.74 20 27.48 20 20 20 C20 33.86 20 47.72 20 62 C15.38 62 10.76 62 6 62 C6 66.62 6 71.24 6 76 C-0.6 76 -7.2 76 -14 76 C-14 69.4 -14 62.8 -14 56 C-9.38 56 -4.76 56 0 56 C0 37.52 0 19.04 0 0 Z " fill="#0D3956" transform="translate(1081,195)"/>
<path d="M0 0 C20.79 0 41.58 0 63 0 C63 16.17 63 32.34 63 49 C58.38 49 53.76 49 49 49 C49 53.62 49 58.24 49 63 C44.38 63 39.76 63 35 63 C35 67.62 35 72.24 35 77 C30.05 77 25.1 77 20 77 C20 81.62 20 86.24 20 91 C13.4 91 6.8 91 0 91 C0 84.4 0 77.8 0 71 C4.62 71 9.24 71 14 71 C14 66.05 14 61.1 14 56 C18.62 56 23.24 56 28 56 C28 51.38 28 46.76 28 42 C32.62 42 37.24 42 42 42 C42 34.74 42 27.48 42 20 C28.14 20 14.28 20 0 20 C0 13.4 0 6.8 0 0 Z " fill="#0D3956" transform="translate(1398,250)"/>
<path d="M0 0 C12.21 0 24.42 0 37 0 C37 9.57 37 19.14 37 29 C46.9 29 56.8 29 67 29 C67 41.54 67 54.08 67 67 C54.46 67 41.92 67 29 67 C29 57.1 29 47.2 29 37 C19.43 37 9.86 37 0 37 C0 24.79 0 12.58 0 0 Z " fill="#0D3956" transform="translate(2539,724)"/>
<path d="M0 0 C12.54 0 25.08 0 38 0 C38 9.57 38 19.14 38 29 C47.57 29 57.14 29 67 29 C67 41.54 67 54.08 67 67 C54.79 67 42.58 67 30 67 C30 57.1 30 47.2 30 37 C20.1 37 10.2 37 0 37 C0 24.79 0 12.58 0 0 Z " fill="#0D3956" transform="translate(2717,724)"/>
<path d="M0 0 C12.54 0 25.08 0 38 0 C38 9.57 38 19.14 38 29 C47.57 29 57.14 29 67 29 C67 41.54 67 54.08 67 67 C54.79 67 42.58 67 30 67 C30 57.1 30 47.2 30 37 C20.1 37 10.2 37 0 37 C0 24.79 0 12.58 0 0 Z " fill="#0D3956" transform="translate(2628,724)"/>
<path d="M0 0 C12.54 0 25.08 0 38 0 C38 12.21 38 24.42 38 37 C28.1 37 18.2 37 8 37 C8 46.9 8 56.8 8 67 C-4.21 67 -16.42 67 -29 67 C-29 54.46 -29 41.92 -29 29 C-19.43 29 -9.86 29 0 29 C0 19.43 0 9.86 0 0 Z " fill="#0D3956" transform="translate(2479,724)"/>
<path d="M0 0 C5.28 0 10.56 0 16 0 C16.33 21.78 16.66 43.56 17 66 C18.98 66.99 20.96 67.98 23 69 C23 69.66 23 70.32 23 71 C5.18 71 -12.64 71 -31 71 C-31 70.01 -31 69.02 -31 68 C-28.525 67.505 -28.525 67.505 -26 67 C-25.67 54.46 -25.34 41.92 -25 29 C-19.39 29 -13.78 29 -8 29 C-7.505 47.315 -7.505 47.315 -7 66 C-5.35 66.33 -3.7 66.66 -2 67 C-1.98969254 66.17536758 -1.97938507 65.35073517 -1.96876526 64.50111389 C-1.8709612 56.74594316 -1.76847166 48.99085547 -1.66066074 41.23581791 C-1.60539527 37.24846784 -1.55196963 33.26111048 -1.50268555 29.27368164 C-1.45509524 25.42868399 -1.40275464 21.58377818 -1.34705925 17.73888969 C-1.32661143 16.26883658 -1.30790244 14.79875826 -1.29092598 13.32866096 C-1.26693536 11.27638724 -1.2368741 9.22428853 -1.20532227 7.17211914 C-1.18977798 6.00185684 -1.1742337 4.83159454 -1.15821838 3.62586975 C-1 1 -1 1 0 0 Z " fill="#0D3956" transform="translate(433,455)"/>
<path d="M0 0 C0.72044998 -0.00175232 1.44089996 -0.00350464 2.18318176 -0.00531006 C4.5699808 -0.0097196 6.95670604 -0.00679405 9.34350586 -0.00341797 C10.9973502 -0.00409119 12.65119445 -0.00506137 14.30503845 -0.00631714 C17.77270448 -0.00779283 21.24034477 -0.00564339 24.70800781 -0.00097656 C29.1627383 0.0047251 33.6174086 0.00143815 38.07213688 -0.00454903 C41.48722287 -0.0081543 44.90229449 -0.00701629 48.31738091 -0.00442123 C49.9605046 -0.0037521 51.60362959 -0.00457991 53.24675179 -0.00690079 C55.53823456 -0.00942725 57.82961839 -0.00558705 60.12109375 0 C62.08061729 0.00119339 62.08061729 0.00119339 64.07972717 0.00241089 C66.99584961 0.12939453 66.99584961 0.12939453 67.99584961 1.12939453 C68.09484247 2.92919224 68.12384109 4.73288287 68.12524414 6.53540039 C68.1283963 7.69007309 68.13154846 8.84474579 68.13479614 10.03440857 C68.1317598 11.92027428 68.1317598 11.92027428 68.12866211 13.84423828 C68.12961884 15.12545059 68.13057556 16.4066629 68.13156128 17.72669983 C68.13303809 20.44289348 68.13088459 23.1590543 68.1262207 25.87524414 C68.12052908 29.36024311 68.1237989 32.84516497 68.12979317 36.33016109 C68.1342727 39.6473597 68.13113733 42.96453749 68.12866211 46.28173828 C68.13068634 47.53695786 68.13271057 48.79217743 68.13479614 50.08543396 C68.1300679 51.82217125 68.1300679 51.82217125 68.12524414 53.59399414 C68.12444855 54.61690048 68.12365295 55.63980682 68.12283325 56.69371033 C67.99584961 59.12939453 67.99584961 59.12939453 66.99584961 61.12939453 C65.51084961 60.63439453 65.51084961 60.63439453 63.99584961 60.12939453 C63.66584961 41.97939453 63.33584961 23.82939453 62.99584961 5.12939453 C29.83084961 4.63439453 29.83084961 4.63439453 -4.00415039 4.12939453 C-4.00415039 11.71939453 -4.00415039 19.30939453 -4.00415039 27.12939453 C-4.33415039 27.45939453 -4.66415039 27.78939453 -5.00415039 28.12939453 C-12.59415039 28.12939453 -20.18415039 28.12939453 -28.00415039 28.12939453 C-28.00415039 60.46939453 -28.00415039 92.80939453 -28.00415039 126.12939453 C-4.57415039 126.45939453 18.85584961 126.78939453 42.99584961 127.12939453 C42.99584961 128.11939453 42.99584961 129.10939453 42.99584961 130.12939453 C18.24584961 130.12939453 -6.50415039 130.12939453 -32.00415039 130.12939453 C-32.92665301 104.59790912 -32.92665301 104.59790912 -33.12719727 93.57275391 C-33.26385987 86.09546777 -33.42403325 78.62475597 -33.73925781 71.15258789 C-35.60585548 25.76430967 -35.60585548 25.76430967 -25.33549976 13.87381458 C-18.209488 6.419774 -10.54423267 0.00641774 0 0 Z " fill="#0D3956" transform="translate(423.004150390625,406.87060546875)"/>
<path d="M0 0 C11.55 0 23.1 0 35 0 C35 11.55 35 23.1 35 35 C23.45 35 11.9 35 0 35 C0 23.45 0 11.9 0 0 Z " fill="#0D3956" transform="translate(1270,264)"/>
<path d="M0 0 C1 1 1 1 1.09765625 3.28515625 C1.08605469 4.20167969 1.07445312 5.11820312 1.0625 6.0625 C1.05347656 6.98160156 1.04445313 7.90070313 1.03515625 8.84765625 C1.02355469 9.55792969 1.01195312 10.26820313 1 11 C0.43152344 11.17015625 -0.13695312 11.3403125 -0.72265625 11.515625 C-8.70259105 14.02017883 -14.7448387 16.30797764 -19 24 C-20.66881717 29.0064515 -21.09634876 34.32964015 -19.05859375 39.29296875 C-15.05307385 45.98557724 -10.12657292 49.20526552 -3 52 C-2.97312721 53.81242052 -2.95366285 55.62495233 -2.9375 57.4375 C-2.92589844 58.44683594 -2.91429687 59.45617187 -2.90234375 60.49609375 C-3 63 -3 63 -4 64 C-12.45187136 63.86584331 -18.53136736 61.00932993 -24.82421875 55.36328125 C-31.51174335 48.13671185 -34.37228614 39.17412561 -34.2109375 29.4609375 C-33.43774716 20.44038353 -29.79524465 13.29817661 -23.078125 7.27734375 C-15.84765481 1.57424032 -9.24320665 -0.92077921 0 0 Z " fill="#0D3956" transform="translate(490,473)"/>
<path d="M0 0 C16.17 0 32.34 0 49 0 C49 6.6 49 13.2 49 20 C32.83 20 16.66 20 0 20 C0 13.4 0 6.8 0 0 Z " fill="#0D3956" transform="translate(1440,193)"/>
<path d="M0 0 C5.61 0 11.22 0 17 0 C17.22290844 6.29859223 17.38598559 12.59487915 17.49438477 18.89648438 C17.53957687 21.03849279 17.60094654 23.18022459 17.67895508 25.32128906 C17.78847371 28.40499015 17.83923294 31.48501819 17.87890625 34.5703125 C17.92535782 35.52366486 17.97180939 36.47701721 18.01966858 37.45925903 C18.02177027 40.24329858 17.91805749 42.36784088 17 45 C14.89264235 46.99999851 12.83606402 48.31621092 10.27354431 49.67575073 C7.17405551 51.48107986 5.33547978 53.85757362 3.19140625 56.6796875 C2.79824219 57.11539063 2.40507812 57.55109375 2 58 C1.34 58 0.68 58 0 58 C0 38.86 0 19.72 0 0 Z " fill="#0D3956" transform="translate(456,427)"/>
<path d="M0 0 C6.93 0 13.86 0 21 0 C21 11.55 21 23.1 21 35 C14.07 35 7.14 35 0 35 C0 23.45 0 11.9 0 0 Z " fill="#0D3956" transform="translate(1582,306)"/>
<path d="M0 0 C9.9829905 0 17.82547048 1.79522509 25.2109375 8.80078125 C31.45755728 16.47948635 34 24.29897848 34 34 C28.39 34 22.78 34 17 34 C16.62875 32.453125 16.2575 30.90625 15.875 29.3125 C14.25259147 23.97741707 12.77658166 21.88397383 8 19 C5.36 18.34 2.72 17.68 0 17 C0 11.39 0 5.78 0 0 Z " fill="#0D3956" transform="translate(496,464)"/>
</svg>
