<?xml version="1.0" standalone="no"?>
<!DOCTYPE svg PUBLIC "-//W3C//DTD SVG 20010904//EN"
 "http://www.w3.org/TR/2001/REC-SVG-20010904/DTD/svg10.dtd">
<svg version="1.0" xmlns="http://www.w3.org/2000/svg"
 width="6882.000000pt" height="2763.000000pt" viewBox="0 0 6882.000000 2763.000000"
 preserveAspectRatio="xMidYMid meet">

<g transform="translate(0.000000,2763.000000) scale(0.100000,-0.100000)"
fill="#000000" stroke="none">
<path d="M8855 26454 c-22 -2 -114 -8 -205 -15 -803 -54 -1663 -250 -2430
-554 -901 -357 -1688 -840 -2448 -1501 -181 -157 -597 -572 -756 -754 -901
-1029 -1517 -2200 -1840 -3495 -110 -441 -173 -829 -223 -1365 -15 -165 -17
-391 -20 -2102 l-4 -1918 -172 0 c-188 0 -197 -3 -197 -54 1 -43 559 -1006
589 -1018 12 -4 31 -4 44 1 15 6 105 154 305 499 282 491 302 533 269 561 -8
6 -79 12 -183 13 l-169 3 0 1835 c0 1927 0 1941 46 2342 335 2976 2323 5527
5114 6566 651 242 1303 389 2035 458 228 21 864 30 1105 15 1581 -99 3022
-626 4270 -1563 322 -242 540 -432 845 -738 249 -248 383 -397 594 -661 895
-1118 1470 -2474 1651 -3894 60 -477 58 -386 64 -2640 6 -2000 7 -2071 25
-2108 95 -191 387 -159 445 48 14 52 15 3812 1 4095 -76 1485 -503 2835 -1291
4076 -327 516 -698 975 -1158 1434 -416 415 -808 737 -1278 1050 -1238 825
-2622 1288 -4123 1380 -147 9 -801 12 -905 4z"/>
<path d="M8555 21833 c-1059 -92 -2057 -804 -2476 -1766 -26 -61 -57 -119 -68
-131 -20 -19 -24 -20 -108 -7 -152 22 -251 24 -358 8 -612 -94 -993 -749 -819
-1410 15 -54 25 -99 23 -101 -2 -1 -33 -8 -69 -14 -165 -28 -218 -44 -417
-125 -167 -69 -242 -109 -328 -178 -290 -230 -473 -545 -532 -913 -21 -135
-13 -414 15 -536 65 -277 187 -496 386 -696 204 -204 414 -319 716 -393 169
-41 298 -59 534 -73 200 -12 270 -10 1081 22 121 5 276 9 346 10 l125 0 -4
348 c-4 283 -2 353 9 374 8 14 203 240 433 501 292 332 429 479 449 487 20 7
443 10 1274 10 1357 0 1275 3 1322 -56 21 -27 21 -30 21 -838 l0 -811 1038 0
c689 0 1117 -5 1277 -13 591 -30 826 -26 1077 19 570 102 1002 519 1104 1064
24 131 15 365 -19 495 -58 220 -174 419 -340 583 l-99 99 53 -7 c30 -4 180 -7
334 -8 302 -1 347 4 488 57 162 61 307 193 382 350 24 50 49 116 56 146 19 77
16 241 -5 320 -41 152 -146 299 -276 385 -68 45 -124 64 -284 95 -97 20 -117
54 -149 263 -36 236 -197 448 -429 567 l-84 43 -18 69 c-35 137 -153 273 -306
352 -102 53 -257 96 -344 96 -25 0 -44 15 -113 90 -186 198 -419 325 -683 371
-105 18 -334 16 -450 -5 -124 -22 -304 -83 -420 -141 -107 -54 -146 -78 -248
-153 l-73 -55 -107 56 c-217 112 -508 186 -739 187 l-48 0 -74 95 c-136 172
-344 366 -521 485 -393 264 -833 393 -1325 388 -93 -1 -188 -3 -210 -5z m4276
-1016 c217 -57 411 -182 554 -360 l60 -74 86 -7 c298 -23 537 -201 556 -413
l5 -59 122 -61 c136 -69 212 -131 281 -228 65 -91 93 -162 115 -293 24 -145
42 -198 81 -245 43 -52 89 -73 224 -101 137 -29 184 -55 273 -151 198 -211
188 -508 -23 -720 -75 -75 -155 -123 -245 -148 -132 -38 -181 -40 -621 -29
l-424 10 -197 41 c-283 59 -351 89 -417 184 -61 90 -86 177 -126 447 -30 198
-53 277 -126 423 -128 255 -296 448 -520 595 -47 32 -160 93 -251 137 l-166
80 -6 60 c-22 197 -118 386 -277 549 -89 91 -93 73 36 160 158 106 360 189
525 216 41 6 82 13 90 15 8 2 78 2 155 0 109 -2 162 -9 236 -28z"/>
<path d="M27510 18270 l0 -150 -105 0 -105 0 0 -345 0 -345 145 0 145 0 0 295
0 295 280 0 280 0 0 -390 0 -390 -105 0 -105 0 0 -145 0 -145 -105 0 -104 0
-3 -147 -3 -148 -107 -3 -108 -3 0 -144 0 -145 -105 0 -105 0 0 -345 0 -345
570 0 570 0 0 195 0 195 -425 0 -425 0 0 95 0 95 105 0 104 0 3 148 3 147 103
3 102 3 0 144 0 145 110 0 110 0 0 150 0 150 105 0 105 0 0 490 0 490 -105 0
-105 0 0 150 0 150 -360 0 -360 0 0 -150z"/>
<path d="M29158 18273 l-3 -148 -107 -3 -108 -3 0 -1079 0 -1080 110 0 110 0
0 -145 0 -145 355 0 355 0 0 145 0 145 105 0 105 0 0 1080 0 1080 -105 0 -105
0 0 150 0 150 -355 0 -354 0 -3 -147z m632 -1233 l0 -980 -277 2 -278 3 -3
965 c-1 531 0 971 3 978 3 9 69 12 280 12 l275 0 0 -980z"/>
<path d="M30798 18273 l-3 -148 -107 -3 -108 -3 0 -344 0 -345 145 0 145 0 2
293 3 292 278 3 277 2 0 -390 0 -390 -105 0 -105 0 0 -145 0 -145 -105 0 -104
0 -3 -147 -3 -148 -102 -3 -103 -3 0 -144 0 -145 -110 0 -110 0 0 -345 0 -345
570 0 570 0 0 195 0 195 -422 2 -423 3 -3 93 -3 92 105 0 105 0 3 148 3 147
108 3 107 3 0 144 0 145 105 0 104 0 3 148 3 147 103 3 102 3 0 489 0 489
-102 3 -103 3 -3 148 -3 147 -354 0 -354 0 -3 -147z"/>
<path d="M32230 18220 l0 -200 423 -2 422 -3 3 -92 3 -93 -111 0 -110 0 0
-145 0 -145 -105 0 -105 0 0 -150 0 -150 -105 0 -105 0 0 -200 0 -200 320 0
320 0 -2 -387 -3 -388 -280 0 -280 0 -3 148 -3 147 -139 0 -140 0 0 -200 0
-200 105 0 105 0 0 -145 0 -145 355 0 355 0 0 145 0 145 105 0 105 0 0 495 0
495 -105 0 -105 0 0 145 0 145 -105 0 -105 0 0 95 0 95 105 0 105 0 0 145 0
145 105 0 105 0 0 350 0 350 -565 0 -565 0 0 -200z"/>
<path d="M21870 18250 l0 -120 -600 0 -600 0 0 -160 0 -160 600 0 600 0 0 -80
0 -80 -600 0 -600 0 0 -1000 0 -1000 160 0 160 0 2 838 3 837 198 3 197 2 0
-200 0 -200 -120 0 -120 0 0 -160 0 -160 360 0 360 0 0 -80 0 -80 -360 0 -360
0 0 -160 0 -160 360 0 360 0 0 -240 0 -240 165 0 165 0 0 240 0 240 360 0 360
0 0 160 0 160 -360 0 -360 0 0 80 0 80 360 0 360 0 0 160 0 160 -240 0 -240 0
0 80 0 80 120 0 120 0 0 120 0 120 195 0 195 0 0 -680 0 -680 -120 0 -120 0 0
-160 0 -160 285 0 285 0 0 1000 0 1000 -600 0 -600 0 0 80 0 80 600 0 600 0 0
160 0 160 -600 0 -600 0 0 120 0 120 -165 0 -165 0 0 -120z m480 -1000 l0 -80
-120 0 -120 0 0 -120 0 -120 -195 0 -195 0 0 200 0 200 315 0 315 0 0 -80z"/>
<path d="M24208 18133 l-3 -238 -117 -3 -118 -3 0 -159 0 -159 118 -3 117 -3
0 -435 0 -435 -117 -3 -118 -3 0 -159 0 -159 118 -3 117 -3 0 -195 0 -195
-117 -3 -118 -3 0 -159 0 -160 280 0 280 0 2 478 3 477 118 3 117 3 0 159 0
159 -117 3 -118 3 0 315 0 315 118 3 117 3 0 159 0 159 -117 3 -118 3 -3 238
-2 237 -160 0 -160 0 -2 -237z"/>
<path d="M25168 17893 l-3 -478 -117 -3 -118 -3 0 -159 0 -160 160 0 159 0 3
118 3 117 117 3 118 3 2 357 3 357 195 0 195 0 3 -477 2 -478 405 0 405 0 0
280 0 280 -165 0 -165 0 0 -120 0 -120 -75 0 -75 0 0 480 0 480 -525 0 -525 0
-2 -477z"/>
<path d="M7178 16662 l-388 -387 0 -1642 c0 -1613 0 -1642 19 -1653 24 -12
2299 -14 2319 -1 8 5 12 22 10 42 l-3 34 -1112 5 c-1051 5 -1113 6 -1130 23
-17 17 -18 92 -18 1552 0 1459 1 1535 18 1552 16 16 49 18 375 23 l357 5 5
356 c4 281 8 359 19 372 12 16 100 17 1076 17 976 0 1064 -1 1076 -17 12 -13
14 -167 17 -890 l2 -874 38 3 37 3 0 930 0 930 -1165 3 -1165 2 -387 -388z"/>
<path d="M24930 16770 l0 -159 118 -3 117 -3 3 -237 2 -237 118 -3 117 -3 0
-75 0 -75 -357 -3 -358 -2 0 -160 0 -160 400 0 399 0 3 118 3 117 318 3 317 2
0 -120 0 -120 285 0 285 0 0 160 0 160 -240 0 -240 0 0 200 0 200 120 0 120 0
0 280 0 280 -765 0 -765 0 0 -160z m1200 -240 l0 -80 -120 0 -119 0 -3 -117
-3 -118 -195 0 -195 0 -3 185 c-1 101 0 190 2 197 4 10 73 13 321 13 l315 0 0
-80z"/>
<path d="M8861 16417 c-8 -11 -10 -249 -9 -907 l3 -892 40 58 c86 125 286 298
418 360 l37 18 -2 685 -3 686 -236 3 c-191 2 -238 0 -248 -11z"/>
<path d="M8118 15533 c-17 -4 -18 -62 -18 -1044 l0 -1040 -25 -24 c-21 -22
-33 -25 -103 -25 -65 0 -84 4 -106 21 l-26 20 0 587 c0 323 -4 593 -8 600 -7
9 -63 12 -248 10 l-239 -3 -5 -598 -5 -599 -24 -19 c-18 -15 -39 -19 -97 -19
-70 0 -74 -1 -80 -25 -14 -58 -56 -55 840 -53 l821 3 0 35 0 35 -55 2 c-30 2
-70 6 -88 9 -65 10 -62 -37 -62 1098 l0 1024 -22 6 c-26 7 -424 6 -450 -1z"/>
<path d="M10097 15253 c-4 -3 -7 -111 -7 -238 0 -174 3 -235 13 -242 6 -5 49
-15 95 -21 106 -15 194 -56 271 -128 98 -91 152 -198 167 -331 4 -32 11 -64
17 -70 12 -16 438 -18 468 -3 37 20 21 196 -33 360 -46 143 -115 257 -222 368
-158 164 -335 261 -545 297 -87 16 -213 20 -224 8z"/>
<path d="M9729 14980 c-165 -20 -347 -94 -487 -200 -180 -136 -307 -329 -364
-557 -19 -73 -22 -114 -22 -243 1 -133 5 -169 27 -253 103 -387 410 -674 790
-738 113 -19 108 -28 105 172 -3 141 -6 173 -18 179 -8 4 -46 17 -85 29 -250
75 -439 313 -452 572 -18 325 202 607 518 665 46 9 100 19 119 22 l35 7 3 165
c3 208 10 201 -169 180z"/>
<path d="M9807 14286 c-189 -53 -274 -280 -167 -447 35 -53 103 -104 162 -120
l38 -10 0 -1487 0 -1488 -971 -1682 c-534 -926 -973 -1681 -974 -1680 -2 2
-107 183 -234 403 l-231 400 0 1783 c0 1711 1 1782 18 1782 34 0 122 52 157
92 44 52 67 122 66 203 -1 160 -126 285 -286 285 -88 0 -152 -25 -210 -83 -62
-62 -85 -122 -85 -218 0 -124 85 -242 196 -271 l44 -12 0 -1781 0 -1782 -207
-361 c-115 -199 -210 -361 -213 -362 -3 0 -256 435 -562 966 l-558 966 0 838
0 837 43 13 c69 19 137 77 172 144 26 51 30 69 29 135 -2 127 -51 209 -159
262 -60 29 -70 31 -147 27 -100 -5 -148 -27 -206 -93 -70 -79 -91 -195 -55
-300 23 -68 102 -147 171 -171 l52 -19 0 -840 0 -841 -587 -1017 c-323 -559
-590 -1013 -594 -1009 -4 4 -149 254 -323 555 l-316 548 0 1878 0 1878 61 23
c197 71 253 335 104 482 -62 62 -117 83 -210 82 -97 0 -154 -24 -214 -89 -58
-63 -74 -106 -75 -200 -1 -66 3 -89 23 -129 41 -84 103 -132 209 -162 9 -3 12
-388 12 -1885 l0 -1881 -467 -809 -467 -809 -238 0 c-225 0 -239 -1 -258 -20
-27 -27 -26 -81 1 -106 21 -19 150 -19 6956 -19 l6935 0 19 24 c25 30 24 76
-1 101 -19 19 -33 20 -215 20 -191 0 -195 0 -209 23 -8 12 -251 432 -540 932
l-526 910 3 2063 2 2063 60 24 c163 66 233 260 149 415 -33 62 -70 95 -143
128 -46 21 -64 24 -131 20 -62 -4 -88 -10 -131 -35 -216 -121 -188 -445 45
-532 l51 -19 3 -2064 2 -2065 -392 -680 c-290 -504 -396 -678 -404 -670 -6 7
-97 162 -202 345 l-192 332 0 1988 0 1987 53 19 c75 26 151 106 173 182 34
117 -1 244 -87 317 -53 46 -116 67 -200 67 -210 0 -347 -217 -261 -412 36 -81
87 -126 195 -167 l27 -11 0 -1978 0 -1979 -171 -297 c-94 -163 -173 -296 -174
-294 -2 2 -228 394 -504 871 l-501 869 0 793 0 793 33 6 c19 3 54 19 79 35 88
56 128 136 128 255 -1 114 -53 201 -154 254 -44 23 -63 27 -136 27 -73 0 -92
-4 -136 -27 -97 -51 -145 -127 -152 -239 -5 -93 14 -159 63 -217 35 -40 123
-92 157 -92 17 0 18 -35 18 -794 l0 -795 -277 -480 -277 -480 -22 37 c-12 20
-337 583 -723 1251 l-701 1215 0 1493 c0 1414 1 1494 18 1499 51 16 100 42
130 68 79 69 113 209 77 317 -47 139 -214 226 -358 185z m180 -117 c53 -33 93
-102 93 -160 0 -61 -13 -96 -53 -138 -87 -91 -226 -80 -300 25 -52 74 -46 160
16 231 65 74 164 91 244 42z m4810 -870 c66 -24 123 -109 123 -180 0 -123
-129 -224 -242 -190 -48 15 -116 74 -135 118 -37 90 8 198 102 247 35 18 111
21 152 5z m-10865 -635 c80 -56 110 -162 69 -242 -71 -139 -246 -151 -336 -24
-26 38 -30 53 -30 107 0 54 4 69 30 106 65 92 180 115 267 53z m9588 -199 c35
-18 87 -75 99 -108 41 -108 -37 -241 -154 -263 -75 -14 -171 42 -206 121 -72
157 107 328 261 250z m-6052 -266 c49 -24 96 -87 106 -144 20 -104 -83 -224
-192 -225 -118 -1 -222 129 -192 240 13 48 72 117 115 136 45 20 113 17 163
-7z m-1654 -669 c66 -25 126 -111 126 -180 0 -109 -122 -216 -223 -195 -138
29 -210 176 -142 291 50 85 147 119 239 84z m6249 -293 c60 -26 127 -121 127
-182 0 -63 -60 -147 -125 -176 -77 -35 -162 -15 -222 54 -28 32 -53 90 -53
122 0 59 66 156 125 181 39 17 107 17 148 1z"/>
<path d="M10512 14003 c-5 -10 -12 -48 -16 -85 -24 -241 -187 -448 -425 -541
-42 -16 -79 -34 -83 -41 -12 -17 -9 -305 2 -327 15 -27 61 -25 162 7 178 56
381 186 487 313 142 171 227 410 219 613 l-3 73 -167 3 c-151 2 -168 1 -176
-15z"/>
<path d="M17374 13953 c-18 -14 -584 -1002 -584 -1021 0 -10 6 -26 13 -35 10
-14 37 -17 187 -19 l175 -3 0 -1820 c0 -1873 0 -1892 -41 -2290 -45 -452 -148
-973 -279 -1420 -587 -1999 -1944 -3697 -3765 -4714 -1887 -1054 -4148 -1270
-6215 -594 -841 275 -1650 702 -2340 1237 -475 367 -938 817 -1309 1269 -909
1109 -1495 2438 -1695 3844 -79 550 -81 615 -81 2843 0 1278 -4 1968 -10 1991
-15 52 -49 99 -98 133 -35 25 -55 31 -112 34 -38 2 -84 -1 -105 -8 -48 -16
-101 -63 -128 -114 l-22 -41 0 -2070 c0 -2174 0 -2153 45 -2570 237 -2159
1315 -4130 3026 -5537 947 -778 2083 -1348 3265 -1637 716 -175 1395 -251
2144 -238 356 6 492 15 790 48 2064 229 3952 1219 5341 2799 1116 1270 1819
2841 2013 4501 55 470 54 419 58 2462 l4 1897 173 0 c120 0 176 4 184 12 31
31 10 74 -276 568 -272 469 -289 495 -317 498 -16 1 -35 -1 -41 -5z"/>
<path d="M23510 13595 l0 -315 -310 0 -310 0 0 -315 0 -315 160 0 160 0 0
-1915 0 -1915 -955 0 -955 0 0 1525 0 1525 -315 0 -315 0 0 -1840 0 -1840
2700 0 2700 0 0 -310 0 -310 315 0 315 0 0 310 0 309 -157 3 -158 3 -3 1838
-2 1837 -310 0 -310 0 -2 -1522 -3 -1523 -955 0 -955 0 -3 1912 -2 1913 -163
2 -162 3 -3 313 -2 312 315 0 315 0 0 315 0 315 -315 0 -315 0 0 -315z"/>
<path d="M28158 13148 l-3 -763 -252 -3 -253 -2 0 -315 0 -315 255 0 255 0 -2
-1207 -3 -1208 -252 -3 -253 -2 0 -315 0 -315 760 0 760 0 0 -255 0 -255 315
0 315 0 0 510 0 510 765 0 765 0 0 1330 0 1330 -507 2 -508 3 -3 448 -2 447
705 0 705 0 0 -1270 0 -1270 253 -2 252 -3 0 -445 0 -445 -252 -3 -253 -2 -2
-253 -3 -252 -507 -3 -508 -2 0 -315 0 -315 570 0 570 0 0 255 0 255 255 0
255 0 0 255 0 255 195 0 195 0 0 -510 0 -510 310 0 310 0 0 570 0 570 -250 0
-250 0 0 450 0 450 250 0 250 0 0 820 0 820 -310 0 -310 0 0 -760 0 -760 -195
0 -195 0 0 1210 0 1210 505 0 505 0 0 570 0 570 -310 0 -310 0 -2 -252 -3
-253 -192 -3 -193 -2 0 255 0 255 -315 0 -315 0 -2 -252 -3 -253 -1017 -3
-1018 -2 0 -2035 0 -2035 -445 0 -445 0 0 1210 0 1210 250 0 250 0 0 315 0
315 -250 0 -250 0 0 765 0 765 -315 0 -315 0 -2 -762z m2542 -2603 l0 -705
-195 0 -195 0 0 698 c0 384 3 702 7 705 3 4 91 7 195 7 l188 0 0 -705z"/>
<path d="M36150 13655 l0 -255 -505 0 -505 0 -2 -507 -3 -508 -252 -3 -253 -2
0 -315 0 -315 255 0 255 0 0 -955 0 -955 -255 0 -255 0 0 -315 0 -315 505 0
505 0 0 -195 0 -195 -505 0 -505 0 0 -315 0 -315 570 0 570 0 0 255 0 255 700
0 700 0 0 -255 0 -255 570 0 570 0 0 255 0 255 255 0 255 0 0 255 0 255 195 0
195 0 0 -255 0 -255 250 0 250 0 0 -255 0 -255 315 0 315 0 0 315 0 315 -252
2 -253 3 -3 253 -2 252 -250 0 -250 0 0 450 0 450 250 0 250 0 0 1270 0 1270
255 0 255 0 0 315 0 315 -760 0 -760 0 0 255 0 255 -315 0 -315 0 -2 -762 -3
-763 -192 -3 -193 -2 0 510 0 510 -507 2 -508 3 -3 253 -2 252 -315 0 -315 0
0 -255z m0 -1080 l0 -195 -190 0 -190 0 0 195 0 195 190 0 190 0 0 -195z
m1020 0 l0 -195 -192 2 -193 3 -3 193 -2 192 195 0 195 0 0 -195z m2040 -1015
l0 -1210 -195 0 -195 0 0 510 0 510 -315 0 -315 0 0 -510 0 -510 -195 0 -195
0 0 700 0 700 255 0 255 0 0 255 0 255 255 0 255 0 0 255 0 255 195 0 195 0 0
-1210z m-3060 0 l0 -190 -190 0 -190 0 0 190 0 190 190 0 190 0 0 -190z m1020
0 l0 -190 -195 0 -195 0 0 190 0 190 195 0 195 0 0 -190z m-1020 -1015 l0
-195 -190 0 -190 0 0 195 0 195 190 0 190 0 0 -195z m1020 0 l0 -195 -195 0
-195 0 0 188 c0 104 3 192 7 195 3 4 91 7 195 7 l188 0 0 -195z m1525 -765 l0
-445 -252 -3 -253 -2 -2 -253 -3 -252 -445 0 -445 0 -3 193 -2 192 255 0 255
0 0 255 0 255 255 0 255 0 0 255 0 255 193 -2 192 -3 0 -445z m-1525 -255 l0
-195 -700 0 -700 0 0 195 0 195 700 0 700 0 0 -195z"/>
<path d="M42620 13400 l0 -510 -250 0 -250 0 -2 -507 -3 -508 -252 -3 -253 -2
0 -310 0 -310 253 -2 252 -3 3 -1527 2 -1528 310 0 310 0 0 2290 0 2290 195 0
195 0 0 -255 0 -255 2095 0 2095 0 0 315 0 315 -760 0 -760 0 0 510 0 510
-315 0 -315 0 -2 -507 -3 -508 -955 0 -955 0 -3 508 -2 507 -315 0 -315 0 0
-510z"/>
<path d="M49090 12830 l0 -1080 1020 0 1020 0 0 -190 0 -190 -1020 0 -1020 0
0 -315 0 -315 1018 -2 1017 -3 3 -192 2 -193 -1270 0 -1270 0 0 -315 0 -315
2855 0 2855 0 0 315 0 315 -1270 0 -1270 0 0 195 0 195 1015 0 1015 0 0 315 0
315 -1015 0 -1015 0 0 190 0 190 1015 0 1015 0 0 1080 0 1080 -2350 0 -2350 0
0 -1080z m1020 195 l0 -255 315 0 315 0 2 253 3 252 190 0 190 0 0 -445 0
-445 -700 0 -700 0 -3 435 c-1 239 0 441 3 448 3 9 52 12 195 12 l190 0 0
-255z m2038 -2 l2 -253 315 0 315 0 0 255 0 255 190 0 190 0 0 -450 0 -450
-700 0 -700 0 0 450 0 450 193 -2 192 -3 3 -252z"/>
<path d="M58108 13658 l-3 -253 -1267 -3 -1268 -2 0 -825 0 -825 250 0 250 0
0 -250 0 -250 315 0 315 0 0 250 0 250 255 0 255 0 0 255 0 255 195 0 195 0 0
-255 0 -255 255 0 255 0 0 -190 0 -190 -510 0 -510 0 0 -255 0 -255 -760 0
-760 0 0 -315 0 -315 505 0 505 0 0 -1020 0 -1020 1840 0 1840 0 2 1018 3
1017 508 3 507 2 0 315 0 315 -510 0 -510 0 0 255 0 255 -505 0 -505 0 0 190
0 190 250 0 250 0 0 255 0 255 255 0 255 0 0 255 0 255 195 0 195 0 0 -510 0
-510 315 0 315 0 0 825 0 825 -1270 0 -1270 0 0 255 0 255 -315 0 -315 0 -2
-252z m-1018 -1083 l0 -195 -255 0 -255 0 0 -255 0 -255 -192 2 -193 3 -3 448
-2 447 450 0 450 0 0 -195z m2540 0 l0 -195 -250 0 -250 0 -2 -252 -3 -253
-447 -3 -448 -2 0 255 0 255 -252 2 -253 3 -3 193 -2 192 955 0 955 0 0 -195z
m-502 -1582 l2 -253 505 0 505 0 0 -195 0 -195 -1465 0 -1465 0 2 193 3 192
508 3 507 2 0 255 0 255 448 -2 447 -3 3 -252z m502 -1723 l0 -450 -1207 2
-1208 3 -3 435 c-1 239 0 441 3 448 3 9 255 12 1210 12 l1205 0 0 -450z"/>
<path d="M63560 13400 l0 -510 -510 0 -510 0 0 -315 0 -315 510 0 510 0 0
-445 0 -445 -255 0 -255 0 0 -510 0 -510 -255 0 -255 0 0 -570 0 -570 315 0
315 0 2 508 3 507 193 3 192 2 0 -1020 0 -1020 315 0 315 0 0 2035 0 2035 255
0 255 0 0 315 0 315 -252 2 -253 3 -3 508 -2 507 -315 0 -315 0 0 -510z"/>
<path d="M65600 13595 l0 -315 760 0 760 0 0 -510 0 -510 255 0 255 0 0 -760
0 -760 315 0 315 0 0 820 0 820 -252 2 -253 3 -3 763 -2 762 -1075 0 -1075 0
0 -315z"/>
<path d="M65088 12383 l-3 -508 -252 -3 -253 -2 0 -565 0 -565 315 0 315 0 0
505 0 505 255 0 255 0 0 570 0 570 -315 0 -315 0 -2 -507z"/>
<path d="M44150 10540 l0 -1330 315 0 315 0 0 1330 0 1330 -315 0 -315 0 0
-1330z"/>
<path d="M46180 10855 l0 -1015 -250 0 -250 0 -2 -507 -3 -508 -1272 -3 -1273
-2 0 -315 0 -315 2095 0 2095 0 0 315 0 315 -505 0 -505 0 0 450 0 450 250 0
250 0 0 1075 0 1075 -315 0 -315 0 0 -1015z"/>
<path d="M65600 10860 l0 -510 -255 0 -255 0 -2 -507 -3 -508 -252 -3 -253 -2
0 -570 0 -570 1075 0 1075 0 0 255 0 255 255 0 255 0 0 255 0 255 195 0 195 0
0 -510 0 -510 315 0 315 0 0 570 0 570 -252 2 -253 3 -3 508 -2 507 -315 0
-315 0 0 -510 0 -510 -255 0 -255 0 0 -255 0 -255 -700 0 -700 0 0 195 0 195
255 0 255 0 0 510 0 510 255 0 255 0 0 570 0 570 -315 0 -315 0 0 -510z"/>
<path d="M49090 9075 l0 -255 -250 0 -250 0 0 -315 0 -315 310 0 310 0 0 255
0 255 255 0 255 0 0 315 0 315 -315 0 -315 0 0 -255z"/>
<path d="M50110 9015 l0 -315 255 0 255 0 0 -255 0 -255 315 0 315 0 0 315 0
315 -252 2 -253 3 -3 253 -2 252 -315 0 -315 0 0 -315z"/>
<path d="M51640 9015 l0 -315 255 0 255 0 0 -255 0 -255 315 0 315 0 0 315 0
315 -255 0 -255 0 0 255 0 255 -315 0 -315 0 0 -315z"/>
<path d="M53160 9015 l0 -315 255 0 255 0 0 -255 0 -255 315 0 315 0 0 315 0
315 -252 2 -253 3 -3 253 -2 252 -315 0 -315 0 0 -315z"/>
</g>
</svg>
