<svg width="1870" height="126" viewBox="0 0 1870 126" fill="none" xmlns="http://www.w3.org/2000/svg">
<path fill-rule="evenodd" clip-rule="evenodd" d="M1870 -0.000488281L1792.57 4.73362C1713.68 9.46772 1558.82 18.9359 1402.5 34.959C1246.18 51.3463 1091.32 74.6527 935 79.3868C778.68 84.1209 623.82 69.9186 467.5 65.5486C311.18 60.8145 156.32 65.5486 77.4298 67.7336L0.00012207 69.9186V126H77.4298C156.32 126 311.18 126 467.5 126C623.82 126 778.68 126 935 126C1091.32 126 1246.18 126 1402.5 126C1558.82 126 1713.68 126 1792.57 126H1870V-0.000488281Z" fill="#E3E3E3"/>
<path fill-rule="evenodd" clip-rule="evenodd" d="M1870 50.3995L1807.67 60.4795C1745.33 70.5595 1620.67 90.7195 1496 85.6795C1371.33 80.6395 1246.67 50.3995 1122 30.2395C997.333 10.0795 872.667 -0.000488281 748 -0.000488281C623.333 -0.000488281 498.667 10.0795 374 27.7195C249.334 45.3595 124.667 70.5595 62.3335 83.1595L0.000188828 95.7595V126H62.3335C124.667 126 249.334 126 374 126C498.667 126 623.333 126 748 126C872.667 126 997.333 126 1122 126C1246.67 126 1371.33 126 1496 126C1620.67 126 1745.33 126 1807.67 126H1870V50.3995Z" fill="#32B4FC"/>
</svg>
